<mxfile host="app.diagrams.net" agent="Mozilla/5.0 (X11; Ubuntu; Linux x86_64; rv:134.0) Gecko/20100101 Firefox/134.0" version="26.0.11">
  <diagram id="C5RBs43oDa-KdzZeNtuy" name="Page-1">
    <mxGraphModel grid="1" page="1" gridSize="10" guides="1" tooltips="1" connect="1" arrows="1" fold="1" pageScale="1" pageWidth="827" pageHeight="1169" math="0" shadow="0">
      <root>
        <mxCell id="WIyWlLk6GJQsqaUBKTNV-0" />
        <mxCell id="WIyWlLk6GJQsqaUBKTNV-1" parent="WIyWlLk6GJQsqaUBKTNV-0" />
        <mxCell id="yLyFV1x4ZE79QHFPJ-aJ-38" value="Quelque idée que je garde de côté..." style="shape=folder;fontStyle=1;tabWidth=110;tabHeight=30;tabPosition=left;html=1;boundedLbl=1;labelInHeader=1;container=1;collapsible=0;whiteSpace=wrap;fillColor=none;" vertex="1" parent="WIyWlLk6GJQsqaUBKTNV-1">
          <mxGeometry x="-2490" y="510" width="1350" height="1820" as="geometry" />
        </mxCell>
        <mxCell id="yLyFV1x4ZE79QHFPJ-aJ-39" value="Text" style="html=1;strokeColor=none;resizeWidth=1;resizeHeight=1;fillColor=none;part=1;connectable=0;allowArrows=0;deletable=0;whiteSpace=wrap;" vertex="1" parent="yLyFV1x4ZE79QHFPJ-aJ-38">
          <mxGeometry width="1350" height="1274" relative="1" as="geometry">
            <mxPoint y="30" as="offset" />
          </mxGeometry>
        </mxCell>
        <mxCell id="yLyFV1x4ZE79QHFPJ-aJ-62" value="&amp;lt;&amp;lt;Interface&amp;gt;&amp;gt;&lt;br&gt;&lt;b&gt;Interface GestionRessources&lt;/b&gt;" style="swimlane;fontStyle=0;align=center;verticalAlign=top;childLayout=stackLayout;horizontal=1;startSize=55;horizontalStack=0;resizeParent=1;resizeParentMax=0;resizeLast=0;collapsible=0;marginBottom=0;html=1;whiteSpace=wrap;" vertex="1" parent="yLyFV1x4ZE79QHFPJ-aJ-38">
          <mxGeometry x="9" y="1390" width="601" height="395" as="geometry" />
        </mxCell>
        <mxCell id="yLyFV1x4ZE79QHFPJ-aJ-66" value="&amp;nbsp; " style="text;html=1;strokeColor=none;fillColor=none;align=left;verticalAlign=middle;spacingLeft=4;spacingRight=4;overflow=hidden;rotatable=0;points=[[0,0.5],[1,0.5]];portConstraint=eastwest;whiteSpace=wrap;" vertex="1" parent="yLyFV1x4ZE79QHFPJ-aJ-62">
          <mxGeometry y="55" width="601" height="20" as="geometry" />
        </mxCell>
        <mxCell id="yLyFV1x4ZE79QHFPJ-aJ-67" value="" style="line;strokeWidth=1;fillColor=none;align=left;verticalAlign=middle;spacingTop=-1;spacingLeft=3;spacingRight=3;rotatable=0;labelPosition=right;points=[];portConstraint=eastwest;" vertex="1" parent="yLyFV1x4ZE79QHFPJ-aJ-62">
          <mxGeometry y="75" width="601" height="8" as="geometry" />
        </mxCell>
        <mxCell id="yLyFV1x4ZE79QHFPJ-aJ-42" value="+emprunterRessource(titre : String, utilisateur : Utilisateur, jResa : Date, retour : Date) " style="text;align=left;verticalAlign=top;spacingLeft=4;spacingRight=4;overflow=hidden;rotatable=0;points=[[0,0.5],[1,0.5]];portConstraint=eastwest;" vertex="1" parent="yLyFV1x4ZE79QHFPJ-aJ-62">
          <mxGeometry y="83" width="601" height="26" as="geometry" />
        </mxCell>
        <mxCell id="yLyFV1x4ZE79QHFPJ-aJ-43" value="+retournerRessource(titre : String) " style="text;align=left;verticalAlign=top;spacingLeft=4;spacingRight=4;overflow=hidden;rotatable=0;points=[[0,0.5],[1,0.5]];portConstraint=eastwest;" vertex="1" parent="yLyFV1x4ZE79QHFPJ-aJ-62">
          <mxGeometry y="109" width="601" height="26" as="geometry" />
        </mxCell>
        <mxCell id="yLyFV1x4ZE79QHFPJ-aJ-44" value="+reserverRessource(titre : String, utilisateur : Utilisateur, dateReser : Date, retour : Date) " style="text;align=left;verticalAlign=top;spacingLeft=4;spacingRight=4;overflow=hidden;rotatable=0;points=[[0,0.5],[1,0.5]];portConstraint=eastwest;" vertex="1" parent="yLyFV1x4ZE79QHFPJ-aJ-62">
          <mxGeometry y="135" width="601" height="26" as="geometry" />
        </mxCell>
        <mxCell id="yLyFV1x4ZE79QHFPJ-aJ-47" value="+notifierDisponibilite(ressource : Ressources)" style="text;align=left;verticalAlign=top;spacingLeft=4;spacingRight=4;overflow=hidden;rotatable=0;points=[[0,0.5],[1,0.5]];portConstraint=eastwest;" vertex="1" parent="yLyFV1x4ZE79QHFPJ-aJ-62">
          <mxGeometry y="161" width="601" height="26" as="geometry" />
        </mxCell>
        <mxCell id="yLyFV1x4ZE79QHFPJ-aJ-46" value="+retard() " style="text;align=left;verticalAlign=top;spacingLeft=4;spacingRight=4;overflow=hidden;rotatable=0;points=[[0,0.5],[1,0.5]];portConstraint=eastwest;" vertex="1" parent="yLyFV1x4ZE79QHFPJ-aJ-62">
          <mxGeometry y="187" width="601" height="26" as="geometry" />
        </mxCell>
        <mxCell id="yLyFV1x4ZE79QHFPJ-aJ-48" value="+ajoutRessource(type : String, titre : String, auteur : String, sujet : String, dispo : boolean)" style="text;align=left;verticalAlign=top;spacingLeft=4;spacingRight=4;overflow=hidden;rotatable=0;points=[[0,0.5],[1,0.5]];portConstraint=eastwest;" vertex="1" parent="yLyFV1x4ZE79QHFPJ-aJ-62">
          <mxGeometry y="213" width="601" height="26" as="geometry" />
        </mxCell>
        <mxCell id="yLyFV1x4ZE79QHFPJ-aJ-45" value="+annulerReservation(titre : String, utilisateur : Utilisateur) " style="text;align=left;verticalAlign=top;spacingLeft=4;spacingRight=4;overflow=hidden;rotatable=0;points=[[0,0.5],[1,0.5]];portConstraint=eastwest;" vertex="1" parent="yLyFV1x4ZE79QHFPJ-aJ-62">
          <mxGeometry y="239" width="601" height="26" as="geometry" />
        </mxCell>
        <mxCell id="yLyFV1x4ZE79QHFPJ-aJ-49" value="+suppRes(titre : String) " style="text;align=left;verticalAlign=top;spacingLeft=4;spacingRight=4;overflow=hidden;rotatable=0;points=[[0,0.5],[1,0.5]];portConstraint=eastwest;" vertex="1" parent="yLyFV1x4ZE79QHFPJ-aJ-62">
          <mxGeometry y="265" width="601" height="26" as="geometry" />
        </mxCell>
        <mxCell id="yLyFV1x4ZE79QHFPJ-aJ-50" value="+modifRess(titre : String, ntype : String, nsujet : String, nauteur : String, ntitre : String, dispo : boolean) " style="text;align=left;verticalAlign=top;spacingLeft=4;spacingRight=4;overflow=hidden;rotatable=0;points=[[0,0.5],[1,0.5]];portConstraint=eastwest;" vertex="1" parent="yLyFV1x4ZE79QHFPJ-aJ-62">
          <mxGeometry y="291" width="601" height="26" as="geometry" />
        </mxCell>
        <mxCell id="yLyFV1x4ZE79QHFPJ-aJ-51" value="+afficherRessources() " style="text;align=left;verticalAlign=top;spacingLeft=4;spacingRight=4;overflow=hidden;rotatable=0;points=[[0,0.5],[1,0.5]];portConstraint=eastwest;" vertex="1" parent="yLyFV1x4ZE79QHFPJ-aJ-62">
          <mxGeometry y="317" width="601" height="26" as="geometry" />
        </mxCell>
        <mxCell id="yLyFV1x4ZE79QHFPJ-aJ-52" value="+afficherEmprunts()" style="text;align=left;verticalAlign=top;spacingLeft=4;spacingRight=4;overflow=hidden;rotatable=0;points=[[0,0.5],[1,0.5]];portConstraint=eastwest;" vertex="1" parent="yLyFV1x4ZE79QHFPJ-aJ-62">
          <mxGeometry y="343" width="601" height="26" as="geometry" />
        </mxCell>
        <mxCell id="yLyFV1x4ZE79QHFPJ-aJ-53" value="+afficherReservations()" style="text;align=left;verticalAlign=top;spacingLeft=4;spacingRight=4;overflow=hidden;rotatable=0;points=[[0,0.5],[1,0.5]];portConstraint=eastwest;" vertex="1" parent="yLyFV1x4ZE79QHFPJ-aJ-62">
          <mxGeometry y="369" width="601" height="26" as="geometry" />
        </mxCell>
        <mxCell id="9IkHnGnMmLAS4iMcp6C8-106" value="Utilisateur" style="swimlane;fontStyle=0;align=center;verticalAlign=top;childLayout=stackLayout;horizontal=1;startSize=26;horizontalStack=0;resizeParent=1;resizeLast=0;collapsible=1;marginBottom=0;rounded=0;shadow=0;strokeWidth=1;" vertex="1" parent="yLyFV1x4ZE79QHFPJ-aJ-38">
          <mxGeometry x="30" y="60" width="240" height="528" as="geometry">
            <mxRectangle x="130" y="380" width="160" height="26" as="alternateBounds" />
          </mxGeometry>
        </mxCell>
        <mxCell id="9IkHnGnMmLAS4iMcp6C8-107" value="+role : String" style="text;align=left;verticalAlign=top;spacingLeft=4;spacingRight=4;overflow=hidden;rotatable=0;points=[[0,0.5],[1,0.5]];portConstraint=eastwest;" vertex="1" parent="9IkHnGnMmLAS4iMcp6C8-106">
          <mxGeometry y="26" width="240" height="26" as="geometry" />
        </mxCell>
        <mxCell id="9IkHnGnMmLAS4iMcp6C8-108" value="+id : int" style="text;align=left;verticalAlign=top;spacingLeft=4;spacingRight=4;overflow=hidden;rotatable=0;points=[[0,0.5],[1,0.5]];portConstraint=eastwest;rounded=0;shadow=0;html=0;" vertex="1" parent="9IkHnGnMmLAS4iMcp6C8-106">
          <mxGeometry y="52" width="240" height="26" as="geometry" />
        </mxCell>
        <mxCell id="9IkHnGnMmLAS4iMcp6C8-109" value="+nom : String" style="text;align=left;verticalAlign=top;spacingLeft=4;spacingRight=4;overflow=hidden;rotatable=0;points=[[0,0.5],[1,0.5]];portConstraint=eastwest;rounded=0;shadow=0;html=0;" vertex="1" parent="9IkHnGnMmLAS4iMcp6C8-106">
          <mxGeometry y="78" width="240" height="26" as="geometry" />
        </mxCell>
        <mxCell id="9IkHnGnMmLAS4iMcp6C8-110" value="+penalites : int" style="text;align=left;verticalAlign=top;spacingLeft=4;spacingRight=4;overflow=hidden;rotatable=0;points=[[0,0.5],[1,0.5]];portConstraint=eastwest;rounded=0;shadow=0;html=0;" vertex="1" parent="9IkHnGnMmLAS4iMcp6C8-106">
          <mxGeometry y="104" width="240" height="26" as="geometry" />
        </mxCell>
        <mxCell id="9IkHnGnMmLAS4iMcp6C8-111" value="+abonnement : boolean" style="text;align=left;verticalAlign=top;spacingLeft=4;spacingRight=4;overflow=hidden;rotatable=0;points=[[0,0.5],[1,0.5]];portConstraint=eastwest;rounded=0;shadow=0;html=0;" vertex="1" parent="9IkHnGnMmLAS4iMcp6C8-106">
          <mxGeometry y="130" width="240" height="26" as="geometry" />
        </mxCell>
        <mxCell id="9IkHnGnMmLAS4iMcp6C8-144" value="+listeEmprunt : List&lt;Emprunt&gt;" style="text;align=left;verticalAlign=top;spacingLeft=4;spacingRight=4;overflow=hidden;rotatable=0;points=[[0,0.5],[1,0.5]];portConstraint=eastwest;rounded=0;shadow=0;html=0;" vertex="1" parent="9IkHnGnMmLAS4iMcp6C8-106">
          <mxGeometry y="156" width="240" height="26" as="geometry" />
        </mxCell>
        <mxCell id="9IkHnGnMmLAS4iMcp6C8-145" value="+listeReservation : List&lt;Reservation&gt;" style="text;align=left;verticalAlign=top;spacingLeft=4;spacingRight=4;overflow=hidden;rotatable=0;points=[[0,0.5],[1,0.5]];portConstraint=eastwest;rounded=0;shadow=0;html=0;" vertex="1" parent="9IkHnGnMmLAS4iMcp6C8-106">
          <mxGeometry y="182" width="240" height="26" as="geometry" />
        </mxCell>
        <mxCell id="9IkHnGnMmLAS4iMcp6C8-112" value="" style="line;html=1;strokeWidth=1;align=left;verticalAlign=middle;spacingTop=-1;spacingLeft=3;spacingRight=3;rotatable=0;labelPosition=right;points=[];portConstraint=eastwest;" vertex="1" parent="9IkHnGnMmLAS4iMcp6C8-106">
          <mxGeometry y="208" width="240" height="8" as="geometry" />
        </mxCell>
        <mxCell id="9IkHnGnMmLAS4iMcp6C8-113" value="+getID() : int" style="text;align=left;verticalAlign=top;spacingLeft=4;spacingRight=4;overflow=hidden;rotatable=0;points=[[0,0.5],[1,0.5]];portConstraint=eastwest;fontStyle=0" vertex="1" parent="9IkHnGnMmLAS4iMcp6C8-106">
          <mxGeometry y="216" width="240" height="26" as="geometry" />
        </mxCell>
        <mxCell id="9IkHnGnMmLAS4iMcp6C8-114" value="+getNom() : String" style="text;align=left;verticalAlign=top;spacingLeft=4;spacingRight=4;overflow=hidden;rotatable=0;points=[[0,0.5],[1,0.5]];portConstraint=eastwest;" vertex="1" parent="9IkHnGnMmLAS4iMcp6C8-106">
          <mxGeometry y="242" width="240" height="26" as="geometry" />
        </mxCell>
        <mxCell id="9IkHnGnMmLAS4iMcp6C8-115" value="+getRole() : String" style="text;align=left;verticalAlign=top;spacingLeft=4;spacingRight=4;overflow=hidden;rotatable=0;points=[[0,0.5],[1,0.5]];portConstraint=eastwest;rounded=0;shadow=0;html=0;" vertex="1" parent="9IkHnGnMmLAS4iMcp6C8-106">
          <mxGeometry y="268" width="240" height="26" as="geometry" />
        </mxCell>
        <mxCell id="9IkHnGnMmLAS4iMcp6C8-116" value="+abonnementValide() : boolean" style="text;align=left;verticalAlign=top;spacingLeft=4;spacingRight=4;overflow=hidden;rotatable=0;points=[[0,0.5],[1,0.5]];portConstraint=eastwest;rounded=0;shadow=0;html=0;" vertex="1" parent="9IkHnGnMmLAS4iMcp6C8-106">
          <mxGeometry y="294" width="240" height="26" as="geometry" />
        </mxCell>
        <mxCell id="9IkHnGnMmLAS4iMcp6C8-117" value="+getPenalite() : int" style="text;align=left;verticalAlign=top;spacingLeft=4;spacingRight=4;overflow=hidden;rotatable=0;points=[[0,0.5],[1,0.5]];portConstraint=eastwest;rounded=0;shadow=0;html=0;" vertex="1" parent="9IkHnGnMmLAS4iMcp6C8-106">
          <mxGeometry y="320" width="240" height="26" as="geometry" />
        </mxCell>
        <mxCell id="9IkHnGnMmLAS4iMcp6C8-118" value="+aboActif() : void" style="text;align=left;verticalAlign=top;spacingLeft=4;spacingRight=4;overflow=hidden;rotatable=0;points=[[0,0.5],[1,0.5]];portConstraint=eastwest;rounded=0;shadow=0;html=0;" vertex="1" parent="9IkHnGnMmLAS4iMcp6C8-106">
          <mxGeometry y="346" width="240" height="26" as="geometry" />
        </mxCell>
        <mxCell id="9IkHnGnMmLAS4iMcp6C8-119" value="+aboDesac() : void" style="text;align=left;verticalAlign=top;spacingLeft=4;spacingRight=4;overflow=hidden;rotatable=0;points=[[0,0.5],[1,0.5]];portConstraint=eastwest;rounded=0;shadow=0;html=0;" vertex="1" parent="9IkHnGnMmLAS4iMcp6C8-106">
          <mxGeometry y="372" width="240" height="26" as="geometry" />
        </mxCell>
        <mxCell id="9IkHnGnMmLAS4iMcp6C8-120" value="+ajoutPenalite() : void" style="text;align=left;verticalAlign=top;spacingLeft=4;spacingRight=4;overflow=hidden;rotatable=0;points=[[0,0.5],[1,0.5]];portConstraint=eastwest;rounded=0;shadow=0;html=0;" vertex="1" parent="9IkHnGnMmLAS4iMcp6C8-106">
          <mxGeometry y="398" width="240" height="26" as="geometry" />
        </mxCell>
        <mxCell id="9IkHnGnMmLAS4iMcp6C8-121" value="+enlevePenalite() : void" style="text;align=left;verticalAlign=top;spacingLeft=4;spacingRight=4;overflow=hidden;rotatable=0;points=[[0,0.5],[1,0.5]];portConstraint=eastwest;rounded=0;shadow=0;html=0;" vertex="1" parent="9IkHnGnMmLAS4iMcp6C8-106">
          <mxGeometry y="424" width="240" height="26" as="geometry" />
        </mxCell>
        <mxCell id="9IkHnGnMmLAS4iMcp6C8-122" value="+toString() : String" style="text;align=left;verticalAlign=top;spacingLeft=4;spacingRight=4;overflow=hidden;rotatable=0;points=[[0,0.5],[1,0.5]];portConstraint=eastwest;rounded=0;shadow=0;html=0;" vertex="1" parent="9IkHnGnMmLAS4iMcp6C8-106">
          <mxGeometry y="450" width="240" height="26" as="geometry" />
        </mxCell>
        <mxCell id="9IkHnGnMmLAS4iMcp6C8-142" value="+emprunterRessource(ressource : Ressource) : bool" style="text;align=left;verticalAlign=top;spacingLeft=4;spacingRight=4;overflow=hidden;rotatable=0;points=[[0,0.5],[1,0.5]];portConstraint=eastwest;rounded=0;shadow=0;html=0;" vertex="1" parent="9IkHnGnMmLAS4iMcp6C8-106">
          <mxGeometry y="476" width="240" height="26" as="geometry" />
        </mxCell>
        <mxCell id="9IkHnGnMmLAS4iMcp6C8-143" value="+reserverRessource(ressource : Ressource) : bool" style="text;align=left;verticalAlign=top;spacingLeft=4;spacingRight=4;overflow=hidden;rotatable=0;points=[[0,0.5],[1,0.5]];portConstraint=eastwest;rounded=0;shadow=0;html=0;" vertex="1" parent="9IkHnGnMmLAS4iMcp6C8-106">
          <mxGeometry y="502" width="240" height="26" as="geometry" />
        </mxCell>
        <mxCell id="9IkHnGnMmLAS4iMcp6C8-171" value="Utilisateurs" style="swimlane;fontStyle=0;align=center;verticalAlign=top;childLayout=stackLayout;horizontal=1;startSize=26;horizontalStack=0;resizeParent=1;resizeLast=0;collapsible=1;marginBottom=0;rounded=0;shadow=0;strokeWidth=1;" vertex="1" parent="yLyFV1x4ZE79QHFPJ-aJ-38">
          <mxGeometry x="50" y="640" width="160" height="138" as="geometry">
            <mxRectangle x="130" y="380" width="160" height="26" as="alternateBounds" />
          </mxGeometry>
        </mxCell>
        <mxCell id="9IkHnGnMmLAS4iMcp6C8-172" value="Student Number" style="text;align=left;verticalAlign=top;spacingLeft=4;spacingRight=4;overflow=hidden;rotatable=0;points=[[0,0.5],[1,0.5]];portConstraint=eastwest;" vertex="1" parent="9IkHnGnMmLAS4iMcp6C8-171">
          <mxGeometry y="26" width="160" height="26" as="geometry" />
        </mxCell>
        <mxCell id="9IkHnGnMmLAS4iMcp6C8-173" value="" style="line;html=1;strokeWidth=1;align=left;verticalAlign=middle;spacingTop=-1;spacingLeft=3;spacingRight=3;rotatable=0;labelPosition=right;points=[];portConstraint=eastwest;" vertex="1" parent="9IkHnGnMmLAS4iMcp6C8-171">
          <mxGeometry y="52" width="160" height="8" as="geometry" />
        </mxCell>
        <mxCell id="9IkHnGnMmLAS4iMcp6C8-174" value="+ajouterUtilisateur()..." style="text;align=left;verticalAlign=top;spacingLeft=4;spacingRight=4;overflow=hidden;rotatable=0;points=[[0,0.5],[1,0.5]];portConstraint=eastwest;fontStyle=4" vertex="1" parent="9IkHnGnMmLAS4iMcp6C8-171">
          <mxGeometry y="60" width="160" height="26" as="geometry" />
        </mxCell>
        <mxCell id="9IkHnGnMmLAS4iMcp6C8-175" value="+retirerUtilisateur()..." style="text;align=left;verticalAlign=top;spacingLeft=4;spacingRight=4;overflow=hidden;rotatable=0;points=[[0,0.5],[1,0.5]];portConstraint=eastwest;fontStyle=4" vertex="1" parent="9IkHnGnMmLAS4iMcp6C8-171">
          <mxGeometry y="86" width="160" height="26" as="geometry" />
        </mxCell>
        <mxCell id="9IkHnGnMmLAS4iMcp6C8-176" value="+retirerUtilisateur()..." style="text;align=left;verticalAlign=top;spacingLeft=4;spacingRight=4;overflow=hidden;rotatable=0;points=[[0,0.5],[1,0.5]];portConstraint=eastwest;fontStyle=4" vertex="1" parent="9IkHnGnMmLAS4iMcp6C8-171">
          <mxGeometry y="112" width="160" height="26" as="geometry" />
        </mxCell>
        <mxCell id="9IkHnGnMmLAS4iMcp6C8-6" value="Admin?" style="swimlane;fontStyle=0;align=center;verticalAlign=top;childLayout=stackLayout;horizontal=1;startSize=26;horizontalStack=0;resizeParent=1;resizeLast=0;collapsible=1;marginBottom=0;rounded=0;shadow=0;strokeWidth=1;" vertex="1" parent="yLyFV1x4ZE79QHFPJ-aJ-38">
          <mxGeometry x="330" y="320" width="160" height="138" as="geometry">
            <mxRectangle x="130" y="380" width="160" height="26" as="alternateBounds" />
          </mxGeometry>
        </mxCell>
        <mxCell id="9IkHnGnMmLAS4iMcp6C8-7" value="Student Number" style="text;align=left;verticalAlign=top;spacingLeft=4;spacingRight=4;overflow=hidden;rotatable=0;points=[[0,0.5],[1,0.5]];portConstraint=eastwest;" vertex="1" parent="9IkHnGnMmLAS4iMcp6C8-6">
          <mxGeometry y="26" width="160" height="26" as="geometry" />
        </mxCell>
        <mxCell id="9IkHnGnMmLAS4iMcp6C8-9" value="" style="line;html=1;strokeWidth=1;align=left;verticalAlign=middle;spacingTop=-1;spacingLeft=3;spacingRight=3;rotatable=0;labelPosition=right;points=[];portConstraint=eastwest;" vertex="1" parent="9IkHnGnMmLAS4iMcp6C8-6">
          <mxGeometry y="52" width="160" height="8" as="geometry" />
        </mxCell>
        <mxCell id="9IkHnGnMmLAS4iMcp6C8-10" value="+genereRapport() : void" style="text;align=left;verticalAlign=top;spacingLeft=4;spacingRight=4;overflow=hidden;rotatable=0;points=[[0,0.5],[1,0.5]];portConstraint=eastwest;fontStyle=4" vertex="1" parent="9IkHnGnMmLAS4iMcp6C8-6">
          <mxGeometry y="60" width="160" height="26" as="geometry" />
        </mxCell>
        <mxCell id="9IkHnGnMmLAS4iMcp6C8-147" value="Emprunt" style="swimlane;fontStyle=0;align=center;verticalAlign=top;childLayout=stackLayout;horizontal=1;startSize=26;horizontalStack=0;resizeParent=1;resizeLast=0;collapsible=1;marginBottom=0;rounded=0;shadow=0;strokeWidth=1;" vertex="1" parent="yLyFV1x4ZE79QHFPJ-aJ-38">
          <mxGeometry x="870" y="610" width="200" height="372" as="geometry">
            <mxRectangle x="130" y="380" width="160" height="26" as="alternateBounds" />
          </mxGeometry>
        </mxCell>
        <mxCell id="9IkHnGnMmLAS4iMcp6C8-148" value="-ressource : Ressources" style="text;align=left;verticalAlign=top;spacingLeft=4;spacingRight=4;overflow=hidden;rotatable=0;points=[[0,0.5],[1,0.5]];portConstraint=eastwest;" vertex="1" parent="9IkHnGnMmLAS4iMcp6C8-147">
          <mxGeometry y="26" width="200" height="26" as="geometry" />
        </mxCell>
        <mxCell id="9IkHnGnMmLAS4iMcp6C8-149" value="-user : Utilisateur" style="text;align=left;verticalAlign=top;spacingLeft=4;spacingRight=4;overflow=hidden;rotatable=0;points=[[0,0.5],[1,0.5]];portConstraint=eastwest;fontStyle=0" vertex="1" parent="9IkHnGnMmLAS4iMcp6C8-147">
          <mxGeometry y="52" width="200" height="26" as="geometry" />
        </mxCell>
        <mxCell id="9IkHnGnMmLAS4iMcp6C8-150" value="-jEmprunt : Date" style="text;align=left;verticalAlign=top;spacingLeft=4;spacingRight=4;overflow=hidden;rotatable=0;points=[[0,0.5],[1,0.5]];portConstraint=eastwest;" vertex="1" parent="9IkHnGnMmLAS4iMcp6C8-147">
          <mxGeometry y="78" width="200" height="26" as="geometry" />
        </mxCell>
        <mxCell id="9IkHnGnMmLAS4iMcp6C8-151" value="-jRetour : Date" style="text;align=left;verticalAlign=top;spacingLeft=4;spacingRight=4;overflow=hidden;rotatable=0;points=[[0,0.5],[1,0.5]];portConstraint=eastwest;" vertex="1" parent="9IkHnGnMmLAS4iMcp6C8-147">
          <mxGeometry y="104" width="200" height="26" as="geometry" />
        </mxCell>
        <mxCell id="yLyFV1x4ZE79QHFPJ-aJ-33" value="-jLimiteRetour : Date" style="text;align=left;verticalAlign=top;spacingLeft=4;spacingRight=4;overflow=hidden;rotatable=0;points=[[0,0.5],[1,0.5]];portConstraint=eastwest;rounded=0;shadow=0;html=0;" vertex="1" parent="9IkHnGnMmLAS4iMcp6C8-147">
          <mxGeometry y="130" width="200" height="26" as="geometry" />
        </mxCell>
        <mxCell id="9IkHnGnMmLAS4iMcp6C8-153" value="" style="line;html=1;strokeWidth=1;align=left;verticalAlign=middle;spacingTop=-1;spacingLeft=3;spacingRight=3;rotatable=0;labelPosition=right;points=[];portConstraint=eastwest;" vertex="1" parent="9IkHnGnMmLAS4iMcp6C8-147">
          <mxGeometry y="156" width="200" height="8" as="geometry" />
        </mxCell>
        <mxCell id="9IkHnGnMmLAS4iMcp6C8-154" value="+getRess() : Ressources" style="text;align=left;verticalAlign=top;spacingLeft=4;spacingRight=4;overflow=hidden;rotatable=0;points=[[0,0.5],[1,0.5]];portConstraint=eastwest;" vertex="1" parent="9IkHnGnMmLAS4iMcp6C8-147">
          <mxGeometry y="164" width="200" height="26" as="geometry" />
        </mxCell>
        <mxCell id="9IkHnGnMmLAS4iMcp6C8-155" value="+getUser() : Utilisateur" style="text;align=left;verticalAlign=top;spacingLeft=4;spacingRight=4;overflow=hidden;rotatable=0;points=[[0,0.5],[1,0.5]];portConstraint=eastwest;" vertex="1" parent="9IkHnGnMmLAS4iMcp6C8-147">
          <mxGeometry y="190" width="200" height="26" as="geometry" />
        </mxCell>
        <mxCell id="9IkHnGnMmLAS4iMcp6C8-156" value="+getDateEmprunt() : Date" style="text;align=left;verticalAlign=top;spacingLeft=4;spacingRight=4;overflow=hidden;rotatable=0;points=[[0,0.5],[1,0.5]];portConstraint=eastwest;" vertex="1" parent="9IkHnGnMmLAS4iMcp6C8-147">
          <mxGeometry y="216" width="200" height="26" as="geometry" />
        </mxCell>
        <mxCell id="9IkHnGnMmLAS4iMcp6C8-157" value="+getDateRetour() : Date" style="text;align=left;verticalAlign=top;spacingLeft=4;spacingRight=4;overflow=hidden;rotatable=0;points=[[0,0.5],[1,0.5]];portConstraint=eastwest;" vertex="1" parent="9IkHnGnMmLAS4iMcp6C8-147">
          <mxGeometry y="242" width="200" height="26" as="geometry" />
        </mxCell>
        <mxCell id="yLyFV1x4ZE79QHFPJ-aJ-95" value="+getDateLimiteRetour() : Date" style="text;align=left;verticalAlign=top;spacingLeft=4;spacingRight=4;overflow=hidden;rotatable=0;points=[[0,0.5],[1,0.5]];portConstraint=eastwest;" vertex="1" parent="9IkHnGnMmLAS4iMcp6C8-147">
          <mxGeometry y="268" width="200" height="26" as="geometry" />
        </mxCell>
        <mxCell id="9IkHnGnMmLAS4iMcp6C8-158" value="+setUtilise()" style="text;align=left;verticalAlign=top;spacingLeft=4;spacingRight=4;overflow=hidden;rotatable=0;points=[[0,0.5],[1,0.5]];portConstraint=eastwest;" vertex="1" parent="9IkHnGnMmLAS4iMcp6C8-147">
          <mxGeometry y="294" width="200" height="26" as="geometry" />
        </mxCell>
        <mxCell id="9IkHnGnMmLAS4iMcp6C8-159" value="+setLibre() " style="text;align=left;verticalAlign=top;spacingLeft=4;spacingRight=4;overflow=hidden;rotatable=0;points=[[0,0.5],[1,0.5]];portConstraint=eastwest;" vertex="1" parent="9IkHnGnMmLAS4iMcp6C8-147">
          <mxGeometry y="320" width="200" height="26" as="geometry" />
        </mxCell>
        <mxCell id="yLyFV1x4ZE79QHFPJ-aJ-71" value="Une idée d&#39;interface... je suis pas certain de ceci" style="text;html=1;align=center;verticalAlign=middle;resizable=0;points=[];autosize=1;strokeColor=none;fillColor=none;" vertex="1" parent="yLyFV1x4ZE79QHFPJ-aJ-38">
          <mxGeometry x="200" y="1330" width="280" height="30" as="geometry" />
        </mxCell>
        <mxCell id="yLyFV1x4ZE79QHFPJ-aJ-86" value="Reservation" style="swimlane;fontStyle=0;align=center;verticalAlign=top;childLayout=stackLayout;horizontal=1;startSize=26;horizontalStack=0;resizeParent=1;resizeLast=0;collapsible=1;marginBottom=0;rounded=0;shadow=0;strokeWidth=1;" vertex="1" parent="yLyFV1x4ZE79QHFPJ-aJ-38">
          <mxGeometry x="1150" y="740" width="160" height="216" as="geometry">
            <mxRectangle x="130" y="380" width="160" height="26" as="alternateBounds" />
          </mxGeometry>
        </mxCell>
        <mxCell id="yLyFV1x4ZE79QHFPJ-aJ-87" value="-user : Utilisateur" style="text;align=left;verticalAlign=top;spacingLeft=4;spacingRight=4;overflow=hidden;rotatable=0;points=[[0,0.5],[1,0.5]];portConstraint=eastwest;" vertex="1" parent="yLyFV1x4ZE79QHFPJ-aJ-86">
          <mxGeometry y="26" width="160" height="26" as="geometry" />
        </mxCell>
        <mxCell id="yLyFV1x4ZE79QHFPJ-aJ-88" value="-ressource : Ressource" style="text;align=left;verticalAlign=top;spacingLeft=4;spacingRight=4;overflow=hidden;rotatable=0;points=[[0,0.5],[1,0.5]];portConstraint=eastwest;rounded=0;shadow=0;html=0;" vertex="1" parent="yLyFV1x4ZE79QHFPJ-aJ-86">
          <mxGeometry y="52" width="160" height="26" as="geometry" />
        </mxCell>
        <mxCell id="yLyFV1x4ZE79QHFPJ-aJ-89" value="-dateReser : Date" style="text;align=left;verticalAlign=top;spacingLeft=4;spacingRight=4;overflow=hidden;rotatable=0;points=[[0,0.5],[1,0.5]];portConstraint=eastwest;rounded=0;shadow=0;html=0;" vertex="1" parent="yLyFV1x4ZE79QHFPJ-aJ-86">
          <mxGeometry y="78" width="160" height="26" as="geometry" />
        </mxCell>
        <mxCell id="yLyFV1x4ZE79QHFPJ-aJ-90" value="-annulation : bool" style="text;align=left;verticalAlign=top;spacingLeft=4;spacingRight=4;overflow=hidden;rotatable=0;points=[[0,0.5],[1,0.5]];portConstraint=eastwest;rounded=0;shadow=0;html=0;" vertex="1" parent="yLyFV1x4ZE79QHFPJ-aJ-86">
          <mxGeometry y="104" width="160" height="26" as="geometry" />
        </mxCell>
        <mxCell id="yLyFV1x4ZE79QHFPJ-aJ-91" value="-confirmation : bool" style="text;align=left;verticalAlign=top;spacingLeft=4;spacingRight=4;overflow=hidden;rotatable=0;points=[[0,0.5],[1,0.5]];portConstraint=eastwest;rounded=0;shadow=0;html=0;" vertex="1" parent="yLyFV1x4ZE79QHFPJ-aJ-86">
          <mxGeometry y="130" width="160" height="26" as="geometry" />
        </mxCell>
        <mxCell id="yLyFV1x4ZE79QHFPJ-aJ-92" value="" style="line;html=1;strokeWidth=1;align=left;verticalAlign=middle;spacingTop=-1;spacingLeft=3;spacingRight=3;rotatable=0;labelPosition=right;points=[];portConstraint=eastwest;" vertex="1" parent="yLyFV1x4ZE79QHFPJ-aJ-86">
          <mxGeometry y="156" width="160" height="8" as="geometry" />
        </mxCell>
        <mxCell id="yLyFV1x4ZE79QHFPJ-aJ-93" value="+annulerReser()" style="text;align=left;verticalAlign=top;spacingLeft=4;spacingRight=4;overflow=hidden;rotatable=0;points=[[0,0.5],[1,0.5]];portConstraint=eastwest;fontStyle=0" vertex="1" parent="yLyFV1x4ZE79QHFPJ-aJ-86">
          <mxGeometry y="164" width="160" height="26" as="geometry" />
        </mxCell>
        <mxCell id="yLyFV1x4ZE79QHFPJ-aJ-94" value="+confirmerReser() : bool" style="text;align=left;verticalAlign=top;spacingLeft=4;spacingRight=4;overflow=hidden;rotatable=0;points=[[0,0.5],[1,0.5]];portConstraint=eastwest;rounded=0;shadow=0;html=0;" vertex="1" parent="yLyFV1x4ZE79QHFPJ-aJ-86">
          <mxGeometry y="190" width="160" height="26" as="geometry" />
        </mxCell>
        <mxCell id="9IkHnGnMmLAS4iMcp6C8-0" value="Utilisateur" style="swimlane;fontStyle=0;align=center;verticalAlign=top;childLayout=stackLayout;horizontal=1;startSize=26;horizontalStack=0;resizeParent=1;resizeLast=0;collapsible=1;marginBottom=0;rounded=0;shadow=0;strokeWidth=1;" vertex="1" parent="WIyWlLk6GJQsqaUBKTNV-1">
          <mxGeometry x="-10" y="1420" width="190" height="424" as="geometry">
            <mxRectangle x="130" y="380" width="160" height="26" as="alternateBounds" />
          </mxGeometry>
        </mxCell>
        <mxCell id="9IkHnGnMmLAS4iMcp6C8-1" value="-role : String" style="text;align=left;verticalAlign=top;spacingLeft=4;spacingRight=4;overflow=hidden;rotatable=0;points=[[0,0.5],[1,0.5]];portConstraint=eastwest;" vertex="1" parent="9IkHnGnMmLAS4iMcp6C8-0">
          <mxGeometry y="26" width="190" height="26" as="geometry" />
        </mxCell>
        <mxCell id="9IkHnGnMmLAS4iMcp6C8-2" value="-id : int" style="text;align=left;verticalAlign=top;spacingLeft=4;spacingRight=4;overflow=hidden;rotatable=0;points=[[0,0.5],[1,0.5]];portConstraint=eastwest;rounded=0;shadow=0;html=0;" vertex="1" parent="9IkHnGnMmLAS4iMcp6C8-0">
          <mxGeometry y="52" width="190" height="26" as="geometry" />
        </mxCell>
        <mxCell id="9IkHnGnMmLAS4iMcp6C8-31" value="-nom : String" style="text;align=left;verticalAlign=top;spacingLeft=4;spacingRight=4;overflow=hidden;rotatable=0;points=[[0,0.5],[1,0.5]];portConstraint=eastwest;rounded=0;shadow=0;html=0;" vertex="1" parent="9IkHnGnMmLAS4iMcp6C8-0">
          <mxGeometry y="78" width="190" height="26" as="geometry" />
        </mxCell>
        <mxCell id="9IkHnGnMmLAS4iMcp6C8-32" value="-penalites : int" style="text;align=left;verticalAlign=top;spacingLeft=4;spacingRight=4;overflow=hidden;rotatable=0;points=[[0,0.5],[1,0.5]];portConstraint=eastwest;rounded=0;shadow=0;html=0;" vertex="1" parent="9IkHnGnMmLAS4iMcp6C8-0">
          <mxGeometry y="104" width="190" height="26" as="geometry" />
        </mxCell>
        <mxCell id="9IkHnGnMmLAS4iMcp6C8-33" value="-abonnement : boolean" style="text;align=left;verticalAlign=top;spacingLeft=4;spacingRight=4;overflow=hidden;rotatable=0;points=[[0,0.5],[1,0.5]];portConstraint=eastwest;rounded=0;shadow=0;html=0;" vertex="1" parent="9IkHnGnMmLAS4iMcp6C8-0">
          <mxGeometry y="130" width="190" height="26" as="geometry" />
        </mxCell>
        <mxCell id="9IkHnGnMmLAS4iMcp6C8-3" value="" style="line;html=1;strokeWidth=1;align=left;verticalAlign=middle;spacingTop=-1;spacingLeft=3;spacingRight=3;rotatable=0;labelPosition=right;points=[];portConstraint=eastwest;" vertex="1" parent="9IkHnGnMmLAS4iMcp6C8-0">
          <mxGeometry y="156" width="190" height="8" as="geometry" />
        </mxCell>
        <mxCell id="9IkHnGnMmLAS4iMcp6C8-4" value="+getID() : int" style="text;align=left;verticalAlign=top;spacingLeft=4;spacingRight=4;overflow=hidden;rotatable=0;points=[[0,0.5],[1,0.5]];portConstraint=eastwest;fontStyle=0" vertex="1" parent="9IkHnGnMmLAS4iMcp6C8-0">
          <mxGeometry y="164" width="190" height="26" as="geometry" />
        </mxCell>
        <mxCell id="9IkHnGnMmLAS4iMcp6C8-5" value="+getNom() : String" style="text;align=left;verticalAlign=top;spacingLeft=4;spacingRight=4;overflow=hidden;rotatable=0;points=[[0,0.5],[1,0.5]];portConstraint=eastwest;" vertex="1" parent="9IkHnGnMmLAS4iMcp6C8-0">
          <mxGeometry y="190" width="190" height="26" as="geometry" />
        </mxCell>
        <mxCell id="9IkHnGnMmLAS4iMcp6C8-30" value="+getRole() : String" style="text;align=left;verticalAlign=top;spacingLeft=4;spacingRight=4;overflow=hidden;rotatable=0;points=[[0,0.5],[1,0.5]];portConstraint=eastwest;rounded=0;shadow=0;html=0;" vertex="1" parent="9IkHnGnMmLAS4iMcp6C8-0">
          <mxGeometry y="216" width="190" height="26" as="geometry" />
        </mxCell>
        <mxCell id="9IkHnGnMmLAS4iMcp6C8-34" value="+abonnementValide() : boolean" style="text;align=left;verticalAlign=top;spacingLeft=4;spacingRight=4;overflow=hidden;rotatable=0;points=[[0,0.5],[1,0.5]];portConstraint=eastwest;rounded=0;shadow=0;html=0;" vertex="1" parent="9IkHnGnMmLAS4iMcp6C8-0">
          <mxGeometry y="242" width="190" height="26" as="geometry" />
        </mxCell>
        <mxCell id="9IkHnGnMmLAS4iMcp6C8-35" value="+getPenalite() : int" style="text;align=left;verticalAlign=top;spacingLeft=4;spacingRight=4;overflow=hidden;rotatable=0;points=[[0,0.5],[1,0.5]];portConstraint=eastwest;rounded=0;shadow=0;html=0;" vertex="1" parent="9IkHnGnMmLAS4iMcp6C8-0">
          <mxGeometry y="268" width="190" height="26" as="geometry" />
        </mxCell>
        <mxCell id="9IkHnGnMmLAS4iMcp6C8-36" value="+aboActif() " style="text;align=left;verticalAlign=top;spacingLeft=4;spacingRight=4;overflow=hidden;rotatable=0;points=[[0,0.5],[1,0.5]];portConstraint=eastwest;rounded=0;shadow=0;html=0;" vertex="1" parent="9IkHnGnMmLAS4iMcp6C8-0">
          <mxGeometry y="294" width="190" height="26" as="geometry" />
        </mxCell>
        <mxCell id="9IkHnGnMmLAS4iMcp6C8-50" value="+aboDesac()" style="text;align=left;verticalAlign=top;spacingLeft=4;spacingRight=4;overflow=hidden;rotatable=0;points=[[0,0.5],[1,0.5]];portConstraint=eastwest;rounded=0;shadow=0;html=0;" vertex="1" parent="9IkHnGnMmLAS4iMcp6C8-0">
          <mxGeometry y="320" width="190" height="26" as="geometry" />
        </mxCell>
        <mxCell id="9IkHnGnMmLAS4iMcp6C8-51" value="+ajoutPenalite() " style="text;align=left;verticalAlign=top;spacingLeft=4;spacingRight=4;overflow=hidden;rotatable=0;points=[[0,0.5],[1,0.5]];portConstraint=eastwest;rounded=0;shadow=0;html=0;" vertex="1" parent="9IkHnGnMmLAS4iMcp6C8-0">
          <mxGeometry y="346" width="190" height="26" as="geometry" />
        </mxCell>
        <mxCell id="9IkHnGnMmLAS4iMcp6C8-52" value="+enlevePenalite()" style="text;align=left;verticalAlign=top;spacingLeft=4;spacingRight=4;overflow=hidden;rotatable=0;points=[[0,0.5],[1,0.5]];portConstraint=eastwest;rounded=0;shadow=0;html=0;" vertex="1" parent="9IkHnGnMmLAS4iMcp6C8-0">
          <mxGeometry y="372" width="190" height="26" as="geometry" />
        </mxCell>
        <mxCell id="9IkHnGnMmLAS4iMcp6C8-53" value="+toString() : String" style="text;align=left;verticalAlign=top;spacingLeft=4;spacingRight=4;overflow=hidden;rotatable=0;points=[[0,0.5],[1,0.5]];portConstraint=eastwest;rounded=0;shadow=0;html=0;" vertex="1" parent="9IkHnGnMmLAS4iMcp6C8-0">
          <mxGeometry y="398" width="190" height="26" as="geometry" />
        </mxCell>
        <mxCell id="9IkHnGnMmLAS4iMcp6C8-12" value="Ressource" style="swimlane;fontStyle=0;align=center;verticalAlign=top;childLayout=stackLayout;horizontal=1;startSize=26;horizontalStack=0;resizeParent=1;resizeLast=0;collapsible=1;marginBottom=0;rounded=0;shadow=0;strokeWidth=1;" vertex="1" parent="WIyWlLk6GJQsqaUBKTNV-1">
          <mxGeometry x="40" y="692" width="200" height="450" as="geometry">
            <mxRectangle x="130" y="380" width="160" height="26" as="alternateBounds" />
          </mxGeometry>
        </mxCell>
        <mxCell id="9IkHnGnMmLAS4iMcp6C8-13" value="-titre : String" style="text;align=left;verticalAlign=top;spacingLeft=4;spacingRight=4;overflow=hidden;rotatable=0;points=[[0,0.5],[1,0.5]];portConstraint=eastwest;" vertex="1" parent="9IkHnGnMmLAS4iMcp6C8-12">
          <mxGeometry y="26" width="200" height="26" as="geometry" />
        </mxCell>
        <mxCell id="9IkHnGnMmLAS4iMcp6C8-54" value="-autreur : String" style="text;align=left;verticalAlign=top;spacingLeft=4;spacingRight=4;overflow=hidden;rotatable=0;points=[[0,0.5],[1,0.5]];portConstraint=eastwest;" vertex="1" parent="9IkHnGnMmLAS4iMcp6C8-12">
          <mxGeometry y="52" width="200" height="26" as="geometry" />
        </mxCell>
        <mxCell id="9IkHnGnMmLAS4iMcp6C8-14" value="-type : String" style="text;align=left;verticalAlign=top;spacingLeft=4;spacingRight=4;overflow=hidden;rotatable=0;points=[[0,0.5],[1,0.5]];portConstraint=eastwest;rounded=0;shadow=0;html=0;" vertex="1" parent="9IkHnGnMmLAS4iMcp6C8-12">
          <mxGeometry y="78" width="200" height="26" as="geometry" />
        </mxCell>
        <mxCell id="9IkHnGnMmLAS4iMcp6C8-58" value="-sujet : String" style="text;align=left;verticalAlign=top;spacingLeft=4;spacingRight=4;overflow=hidden;rotatable=0;points=[[0,0.5],[1,0.5]];portConstraint=eastwest;" vertex="1" parent="9IkHnGnMmLAS4iMcp6C8-12">
          <mxGeometry y="104" width="200" height="26" as="geometry" />
        </mxCell>
        <mxCell id="9IkHnGnMmLAS4iMcp6C8-57" value="-dispo : boolean" style="text;align=left;verticalAlign=top;spacingLeft=4;spacingRight=4;overflow=hidden;rotatable=0;points=[[0,0.5],[1,0.5]];portConstraint=eastwest;" vertex="1" parent="9IkHnGnMmLAS4iMcp6C8-12">
          <mxGeometry y="130" width="200" height="26" as="geometry" />
        </mxCell>
        <mxCell id="9IkHnGnMmLAS4iMcp6C8-15" value="" style="line;html=1;strokeWidth=1;align=left;verticalAlign=middle;spacingTop=-1;spacingLeft=3;spacingRight=3;rotatable=0;labelPosition=right;points=[];portConstraint=eastwest;" vertex="1" parent="9IkHnGnMmLAS4iMcp6C8-12">
          <mxGeometry y="156" width="200" height="8" as="geometry" />
        </mxCell>
        <mxCell id="9IkHnGnMmLAS4iMcp6C8-16" value="+setSujet(sujet : String) " style="text;align=left;verticalAlign=top;spacingLeft=4;spacingRight=4;overflow=hidden;rotatable=0;points=[[0,0.5],[1,0.5]];portConstraint=eastwest;fontStyle=0" vertex="1" parent="9IkHnGnMmLAS4iMcp6C8-12">
          <mxGeometry y="164" width="200" height="26" as="geometry" />
        </mxCell>
        <mxCell id="9IkHnGnMmLAS4iMcp6C8-17" value="+setAuteur(auteur : String) " style="text;align=left;verticalAlign=top;spacingLeft=4;spacingRight=4;overflow=hidden;rotatable=0;points=[[0,0.5],[1,0.5]];portConstraint=eastwest;" vertex="1" parent="9IkHnGnMmLAS4iMcp6C8-12">
          <mxGeometry y="190" width="200" height="26" as="geometry" />
        </mxCell>
        <mxCell id="9IkHnGnMmLAS4iMcp6C8-55" value="+setType(type : String)" style="text;align=left;verticalAlign=top;spacingLeft=4;spacingRight=4;overflow=hidden;rotatable=0;points=[[0,0.5],[1,0.5]];portConstraint=eastwest;" vertex="1" parent="9IkHnGnMmLAS4iMcp6C8-12">
          <mxGeometry y="216" width="200" height="26" as="geometry" />
        </mxCell>
        <mxCell id="9IkHnGnMmLAS4iMcp6C8-56" value="+setTitre(titre : String) " style="text;align=left;verticalAlign=top;spacingLeft=4;spacingRight=4;overflow=hidden;rotatable=0;points=[[0,0.5],[1,0.5]];portConstraint=eastwest;" vertex="1" parent="9IkHnGnMmLAS4iMcp6C8-12">
          <mxGeometry y="242" width="200" height="26" as="geometry" />
        </mxCell>
        <mxCell id="9IkHnGnMmLAS4iMcp6C8-59" value="+setDispo(dispo : boolean) " style="text;align=left;verticalAlign=top;spacingLeft=4;spacingRight=4;overflow=hidden;rotatable=0;points=[[0,0.5],[1,0.5]];portConstraint=eastwest;" vertex="1" parent="9IkHnGnMmLAS4iMcp6C8-12">
          <mxGeometry y="268" width="200" height="26" as="geometry" />
        </mxCell>
        <mxCell id="9IkHnGnMmLAS4iMcp6C8-60" value="+getDispo() : boolean" style="text;align=left;verticalAlign=top;spacingLeft=4;spacingRight=4;overflow=hidden;rotatable=0;points=[[0,0.5],[1,0.5]];portConstraint=eastwest;" vertex="1" parent="9IkHnGnMmLAS4iMcp6C8-12">
          <mxGeometry y="294" width="200" height="26" as="geometry" />
        </mxCell>
        <mxCell id="9IkHnGnMmLAS4iMcp6C8-61" value="+getTitre() : String" style="text;align=left;verticalAlign=top;spacingLeft=4;spacingRight=4;overflow=hidden;rotatable=0;points=[[0,0.5],[1,0.5]];portConstraint=eastwest;" vertex="1" parent="9IkHnGnMmLAS4iMcp6C8-12">
          <mxGeometry y="320" width="200" height="26" as="geometry" />
        </mxCell>
        <mxCell id="9IkHnGnMmLAS4iMcp6C8-62" value="+getAuteur() : String" style="text;align=left;verticalAlign=top;spacingLeft=4;spacingRight=4;overflow=hidden;rotatable=0;points=[[0,0.5],[1,0.5]];portConstraint=eastwest;" vertex="1" parent="9IkHnGnMmLAS4iMcp6C8-12">
          <mxGeometry y="346" width="200" height="26" as="geometry" />
        </mxCell>
        <mxCell id="9IkHnGnMmLAS4iMcp6C8-63" value="+getType() : String" style="text;align=left;verticalAlign=top;spacingLeft=4;spacingRight=4;overflow=hidden;rotatable=0;points=[[0,0.5],[1,0.5]];portConstraint=eastwest;" vertex="1" parent="9IkHnGnMmLAS4iMcp6C8-12">
          <mxGeometry y="372" width="200" height="26" as="geometry" />
        </mxCell>
        <mxCell id="9IkHnGnMmLAS4iMcp6C8-64" value="+getSujet() : String" style="text;align=left;verticalAlign=top;spacingLeft=4;spacingRight=4;overflow=hidden;rotatable=0;points=[[0,0.5],[1,0.5]];portConstraint=eastwest;" vertex="1" parent="9IkHnGnMmLAS4iMcp6C8-12">
          <mxGeometry y="398" width="200" height="26" as="geometry" />
        </mxCell>
        <mxCell id="9IkHnGnMmLAS4iMcp6C8-65" value="+toString() : String" style="text;align=left;verticalAlign=top;spacingLeft=4;spacingRight=4;overflow=hidden;rotatable=0;points=[[0,0.5],[1,0.5]];portConstraint=eastwest;rounded=0;shadow=0;html=0;" vertex="1" parent="9IkHnGnMmLAS4iMcp6C8-12">
          <mxGeometry y="424" width="200" height="26" as="geometry" />
        </mxCell>
        <mxCell id="9IkHnGnMmLAS4iMcp6C8-18" value="Reservation" style="swimlane;fontStyle=0;align=center;verticalAlign=top;childLayout=stackLayout;horizontal=1;startSize=26;horizontalStack=0;resizeParent=1;resizeLast=0;collapsible=1;marginBottom=0;rounded=0;shadow=0;strokeWidth=1;" vertex="1" parent="WIyWlLk6GJQsqaUBKTNV-1">
          <mxGeometry x="320" y="1156" width="160" height="190" as="geometry">
            <mxRectangle x="130" y="380" width="160" height="26" as="alternateBounds" />
          </mxGeometry>
        </mxCell>
        <mxCell id="9IkHnGnMmLAS4iMcp6C8-19" value="-user : Utilisateur" style="text;align=left;verticalAlign=top;spacingLeft=4;spacingRight=4;overflow=hidden;rotatable=0;points=[[0,0.5],[1,0.5]];portConstraint=eastwest;" vertex="1" parent="9IkHnGnMmLAS4iMcp6C8-18">
          <mxGeometry y="26" width="160" height="26" as="geometry" />
        </mxCell>
        <mxCell id="9IkHnGnMmLAS4iMcp6C8-146" value="-ressource : Ressource" style="text;align=left;verticalAlign=top;spacingLeft=4;spacingRight=4;overflow=hidden;rotatable=0;points=[[0,0.5],[1,0.5]];portConstraint=eastwest;rounded=0;shadow=0;html=0;" vertex="1" parent="9IkHnGnMmLAS4iMcp6C8-18">
          <mxGeometry y="52" width="160" height="26" as="geometry" />
        </mxCell>
        <mxCell id="9IkHnGnMmLAS4iMcp6C8-20" value="-dateReser : Date" style="text;align=left;verticalAlign=top;spacingLeft=4;spacingRight=4;overflow=hidden;rotatable=0;points=[[0,0.5],[1,0.5]];portConstraint=eastwest;rounded=0;shadow=0;html=0;" vertex="1" parent="9IkHnGnMmLAS4iMcp6C8-18">
          <mxGeometry y="78" width="160" height="26" as="geometry" />
        </mxCell>
        <mxCell id="9IkHnGnMmLAS4iMcp6C8-73" value="-annulation : bool" style="text;align=left;verticalAlign=top;spacingLeft=4;spacingRight=4;overflow=hidden;rotatable=0;points=[[0,0.5],[1,0.5]];portConstraint=eastwest;rounded=0;shadow=0;html=0;" vertex="1" parent="9IkHnGnMmLAS4iMcp6C8-18">
          <mxGeometry y="104" width="160" height="26" as="geometry" />
        </mxCell>
        <mxCell id="yLyFV1x4ZE79QHFPJ-aJ-72" value="-confirmation : bool" style="text;align=left;verticalAlign=top;spacingLeft=4;spacingRight=4;overflow=hidden;rotatable=0;points=[[0,0.5],[1,0.5]];portConstraint=eastwest;rounded=0;shadow=0;html=0;" vertex="1" parent="9IkHnGnMmLAS4iMcp6C8-18">
          <mxGeometry y="130" width="160" height="26" as="geometry" />
        </mxCell>
        <mxCell id="9IkHnGnMmLAS4iMcp6C8-21" value="" style="line;html=1;strokeWidth=1;align=left;verticalAlign=middle;spacingTop=-1;spacingLeft=3;spacingRight=3;rotatable=0;labelPosition=right;points=[];portConstraint=eastwest;" vertex="1" parent="9IkHnGnMmLAS4iMcp6C8-18">
          <mxGeometry y="156" width="160" height="8" as="geometry" />
        </mxCell>
        <mxCell id="9IkHnGnMmLAS4iMcp6C8-22" value="+annulerReser()" style="text;align=left;verticalAlign=top;spacingLeft=4;spacingRight=4;overflow=hidden;rotatable=0;points=[[0,0.5],[1,0.5]];portConstraint=eastwest;fontStyle=0" vertex="1" parent="9IkHnGnMmLAS4iMcp6C8-18">
          <mxGeometry y="164" width="160" height="26" as="geometry" />
        </mxCell>
        <mxCell id="9IkHnGnMmLAS4iMcp6C8-24" value="Emprunt" style="swimlane;fontStyle=0;align=center;verticalAlign=top;childLayout=stackLayout;horizontal=1;startSize=26;horizontalStack=0;resizeParent=1;resizeLast=0;collapsible=1;marginBottom=0;rounded=0;shadow=0;strokeWidth=1;" vertex="1" parent="WIyWlLk6GJQsqaUBKTNV-1">
          <mxGeometry x="-220" y="1142" width="160" height="320" as="geometry">
            <mxRectangle x="130" y="380" width="160" height="26" as="alternateBounds" />
          </mxGeometry>
        </mxCell>
        <mxCell id="9IkHnGnMmLAS4iMcp6C8-25" value="-ressource : Ressources" style="text;align=left;verticalAlign=top;spacingLeft=4;spacingRight=4;overflow=hidden;rotatable=0;points=[[0,0.5],[1,0.5]];portConstraint=eastwest;" vertex="1" parent="9IkHnGnMmLAS4iMcp6C8-24">
          <mxGeometry y="26" width="160" height="26" as="geometry" />
        </mxCell>
        <mxCell id="9IkHnGnMmLAS4iMcp6C8-28" value="-user : Utilisateur" style="text;align=left;verticalAlign=top;spacingLeft=4;spacingRight=4;overflow=hidden;rotatable=0;points=[[0,0.5],[1,0.5]];portConstraint=eastwest;fontStyle=0" vertex="1" parent="9IkHnGnMmLAS4iMcp6C8-24">
          <mxGeometry y="52" width="160" height="26" as="geometry" />
        </mxCell>
        <mxCell id="9IkHnGnMmLAS4iMcp6C8-29" value="-jResa : Date" style="text;align=left;verticalAlign=top;spacingLeft=4;spacingRight=4;overflow=hidden;rotatable=0;points=[[0,0.5],[1,0.5]];portConstraint=eastwest;" vertex="1" parent="9IkHnGnMmLAS4iMcp6C8-24">
          <mxGeometry y="78" width="160" height="26" as="geometry" />
        </mxCell>
        <mxCell id="9IkHnGnMmLAS4iMcp6C8-66" value="-retour : Date" style="text;align=left;verticalAlign=top;spacingLeft=4;spacingRight=4;overflow=hidden;rotatable=0;points=[[0,0.5],[1,0.5]];portConstraint=eastwest;" vertex="1" parent="9IkHnGnMmLAS4iMcp6C8-24">
          <mxGeometry y="104" width="160" height="26" as="geometry" />
        </mxCell>
        <mxCell id="9IkHnGnMmLAS4iMcp6C8-26" value="-confirme : boolean" style="text;align=left;verticalAlign=top;spacingLeft=4;spacingRight=4;overflow=hidden;rotatable=0;points=[[0,0.5],[1,0.5]];portConstraint=eastwest;rounded=0;shadow=0;html=0;" vertex="1" parent="9IkHnGnMmLAS4iMcp6C8-24">
          <mxGeometry y="130" width="160" height="26" as="geometry" />
        </mxCell>
        <mxCell id="9IkHnGnMmLAS4iMcp6C8-27" value="" style="line;html=1;strokeWidth=1;align=left;verticalAlign=middle;spacingTop=-1;spacingLeft=3;spacingRight=3;rotatable=0;labelPosition=right;points=[];portConstraint=eastwest;" vertex="1" parent="9IkHnGnMmLAS4iMcp6C8-24">
          <mxGeometry y="156" width="160" height="8" as="geometry" />
        </mxCell>
        <mxCell id="9IkHnGnMmLAS4iMcp6C8-67" value="+getRess() : Ressources" style="text;align=left;verticalAlign=top;spacingLeft=4;spacingRight=4;overflow=hidden;rotatable=0;points=[[0,0.5],[1,0.5]];portConstraint=eastwest;" vertex="1" parent="9IkHnGnMmLAS4iMcp6C8-24">
          <mxGeometry y="164" width="160" height="26" as="geometry" />
        </mxCell>
        <mxCell id="9IkHnGnMmLAS4iMcp6C8-68" value="+getUser() : Utilisateur" style="text;align=left;verticalAlign=top;spacingLeft=4;spacingRight=4;overflow=hidden;rotatable=0;points=[[0,0.5],[1,0.5]];portConstraint=eastwest;" vertex="1" parent="9IkHnGnMmLAS4iMcp6C8-24">
          <mxGeometry y="190" width="160" height="26" as="geometry" />
        </mxCell>
        <mxCell id="9IkHnGnMmLAS4iMcp6C8-69" value="+getDateResa() : Date" style="text;align=left;verticalAlign=top;spacingLeft=4;spacingRight=4;overflow=hidden;rotatable=0;points=[[0,0.5],[1,0.5]];portConstraint=eastwest;" vertex="1" parent="9IkHnGnMmLAS4iMcp6C8-24">
          <mxGeometry y="216" width="160" height="26" as="geometry" />
        </mxCell>
        <mxCell id="9IkHnGnMmLAS4iMcp6C8-70" value="+getDateRetour() : Date" style="text;align=left;verticalAlign=top;spacingLeft=4;spacingRight=4;overflow=hidden;rotatable=0;points=[[0,0.5],[1,0.5]];portConstraint=eastwest;" vertex="1" parent="9IkHnGnMmLAS4iMcp6C8-24">
          <mxGeometry y="242" width="160" height="26" as="geometry" />
        </mxCell>
        <mxCell id="9IkHnGnMmLAS4iMcp6C8-71" value="+setUtilise() " style="text;align=left;verticalAlign=top;spacingLeft=4;spacingRight=4;overflow=hidden;rotatable=0;points=[[0,0.5],[1,0.5]];portConstraint=eastwest;" vertex="1" parent="9IkHnGnMmLAS4iMcp6C8-24">
          <mxGeometry y="268" width="160" height="26" as="geometry" />
        </mxCell>
        <mxCell id="9IkHnGnMmLAS4iMcp6C8-72" value="+setLibre() " style="text;align=left;verticalAlign=top;spacingLeft=4;spacingRight=4;overflow=hidden;rotatable=0;points=[[0,0.5],[1,0.5]];portConstraint=eastwest;" vertex="1" parent="9IkHnGnMmLAS4iMcp6C8-24">
          <mxGeometry y="294" width="160" height="26" as="geometry" />
        </mxCell>
        <mxCell id="9IkHnGnMmLAS4iMcp6C8-75" value="GestionUser" style="swimlane;fontStyle=0;align=center;verticalAlign=top;childLayout=stackLayout;horizontal=1;startSize=26;horizontalStack=0;resizeParent=1;resizeLast=0;collapsible=1;marginBottom=0;rounded=0;shadow=0;strokeWidth=1;" vertex="1" parent="WIyWlLk6GJQsqaUBKTNV-1">
          <mxGeometry x="520" y="1549" width="370" height="272" as="geometry">
            <mxRectangle x="130" y="380" width="160" height="26" as="alternateBounds" />
          </mxGeometry>
        </mxCell>
        <mxCell id="9IkHnGnMmLAS4iMcp6C8-76" value="-utilisateur : Map&lt;String, Utilisateur&gt;" style="text;align=left;verticalAlign=top;spacingLeft=4;spacingRight=4;overflow=hidden;rotatable=0;points=[[0,0.5],[1,0.5]];portConstraint=eastwest;" vertex="1" parent="9IkHnGnMmLAS4iMcp6C8-75">
          <mxGeometry y="26" width="370" height="26" as="geometry" />
        </mxCell>
        <mxCell id="9IkHnGnMmLAS4iMcp6C8-78" value="" style="line;html=1;strokeWidth=1;align=left;verticalAlign=middle;spacingTop=-1;spacingLeft=3;spacingRight=3;rotatable=0;labelPosition=right;points=[];portConstraint=eastwest;" vertex="1" parent="9IkHnGnMmLAS4iMcp6C8-75">
          <mxGeometry y="52" width="370" height="8" as="geometry" />
        </mxCell>
        <mxCell id="9IkHnGnMmLAS4iMcp6C8-80" value="+ajoutUser (id : int, nom : String, role : String)" style="text;align=left;verticalAlign=top;spacingLeft=4;spacingRight=4;overflow=hidden;rotatable=0;points=[[0,0.5],[1,0.5]];portConstraint=eastwest;" vertex="1" parent="9IkHnGnMmLAS4iMcp6C8-75">
          <mxGeometry y="60" width="370" height="26" as="geometry" />
        </mxCell>
        <mxCell id="9IkHnGnMmLAS4iMcp6C8-81" value="+modifUser (id : int, newName : String, newRole : String)" style="text;align=left;verticalAlign=top;spacingLeft=4;spacingRight=4;overflow=hidden;rotatable=0;points=[[0,0.5],[1,0.5]];portConstraint=eastwest;" vertex="1" parent="9IkHnGnMmLAS4iMcp6C8-75">
          <mxGeometry y="86" width="370" height="26" as="geometry" />
        </mxCell>
        <mxCell id="9IkHnGnMmLAS4iMcp6C8-83" value="+supprimerUser(id : int) " style="text;align=left;verticalAlign=top;spacingLeft=4;spacingRight=4;overflow=hidden;rotatable=0;points=[[0,0.5],[1,0.5]];portConstraint=eastwest;" vertex="1" parent="9IkHnGnMmLAS4iMcp6C8-75">
          <mxGeometry y="112" width="370" height="26" as="geometry" />
        </mxCell>
        <mxCell id="9IkHnGnMmLAS4iMcp6C8-84" value="+penaliteEnPlus(id : int) " style="text;align=left;verticalAlign=top;spacingLeft=4;spacingRight=4;overflow=hidden;rotatable=0;points=[[0,0.5],[1,0.5]];portConstraint=eastwest;" vertex="1" parent="9IkHnGnMmLAS4iMcp6C8-75">
          <mxGeometry y="138" width="370" height="26" as="geometry" />
        </mxCell>
        <mxCell id="9IkHnGnMmLAS4iMcp6C8-85" value="+penaliteEnMoins(id : int) " style="text;align=left;verticalAlign=top;spacingLeft=4;spacingRight=4;overflow=hidden;rotatable=0;points=[[0,0.5],[1,0.5]];portConstraint=eastwest;" vertex="1" parent="9IkHnGnMmLAS4iMcp6C8-75">
          <mxGeometry y="164" width="370" height="26" as="geometry" />
        </mxCell>
        <mxCell id="9IkHnGnMmLAS4iMcp6C8-86" value="+modifAbo(id : int, abo : boolean) " style="text;align=left;verticalAlign=top;spacingLeft=4;spacingRight=4;overflow=hidden;rotatable=0;points=[[0,0.5],[1,0.5]];portConstraint=eastwest;" vertex="1" parent="9IkHnGnMmLAS4iMcp6C8-75">
          <mxGeometry y="190" width="370" height="26" as="geometry" />
        </mxCell>
        <mxCell id="9IkHnGnMmLAS4iMcp6C8-87" value="+afficherUser() " style="text;align=left;verticalAlign=top;spacingLeft=4;spacingRight=4;overflow=hidden;rotatable=0;points=[[0,0.5],[1,0.5]];portConstraint=eastwest;" vertex="1" parent="9IkHnGnMmLAS4iMcp6C8-75">
          <mxGeometry y="216" width="370" height="26" as="geometry" />
        </mxCell>
        <mxCell id="9IkHnGnMmLAS4iMcp6C8-88" value="GererRess (revoir... semble problématique...)" style="swimlane;fontStyle=0;align=center;verticalAlign=top;childLayout=stackLayout;horizontal=1;startSize=26;horizontalStack=0;resizeParent=1;resizeLast=0;collapsible=1;marginBottom=0;rounded=0;shadow=0;strokeWidth=1;" vertex="1" parent="WIyWlLk6GJQsqaUBKTNV-1">
          <mxGeometry x="-850" y="710" width="580" height="272" as="geometry">
            <mxRectangle x="130" y="380" width="160" height="26" as="alternateBounds" />
          </mxGeometry>
        </mxCell>
        <mxCell id="9IkHnGnMmLAS4iMcp6C8-89" value="-ressources : Map&lt;String, Map&lt;String, Map&lt;String, List&lt;Ressources&gt;&gt;&gt;&gt;" style="text;align=left;verticalAlign=top;spacingLeft=4;spacingRight=4;overflow=hidden;rotatable=0;points=[[0,0.5],[1,0.5]];portConstraint=eastwest;" vertex="1" parent="9IkHnGnMmLAS4iMcp6C8-88">
          <mxGeometry y="26" width="580" height="26" as="geometry" />
        </mxCell>
        <mxCell id="9IkHnGnMmLAS4iMcp6C8-90" value="" style="line;html=1;strokeWidth=1;align=left;verticalAlign=middle;spacingTop=-1;spacingLeft=3;spacingRight=3;rotatable=0;labelPosition=right;points=[];portConstraint=eastwest;" vertex="1" parent="9IkHnGnMmLAS4iMcp6C8-88">
          <mxGeometry y="52" width="580" height="8" as="geometry" />
        </mxCell>
        <mxCell id="9IkHnGnMmLAS4iMcp6C8-91" value="+ajoutRessource(type : String, titre : String, auteur : String, sujet : String, dispo : boolean)" style="text;align=left;verticalAlign=top;spacingLeft=4;spacingRight=4;overflow=hidden;rotatable=0;points=[[0,0.5],[1,0.5]];portConstraint=eastwest;" vertex="1" parent="9IkHnGnMmLAS4iMcp6C8-88">
          <mxGeometry y="60" width="580" height="26" as="geometry" />
        </mxCell>
        <mxCell id="9IkHnGnMmLAS4iMcp6C8-92" value="+suppRes(titre : String) " style="text;align=left;verticalAlign=top;spacingLeft=4;spacingRight=4;overflow=hidden;rotatable=0;points=[[0,0.5],[1,0.5]];portConstraint=eastwest;" vertex="1" parent="9IkHnGnMmLAS4iMcp6C8-88">
          <mxGeometry y="86" width="580" height="26" as="geometry" />
        </mxCell>
        <mxCell id="9IkHnGnMmLAS4iMcp6C8-93" value="+modifRess(titre : String, ntype : String, nsujet : String, nauteur : String, ntitre : String, dispo : boolean) " style="text;align=left;verticalAlign=top;spacingLeft=4;spacingRight=4;overflow=hidden;rotatable=0;points=[[0,0.5],[1,0.5]];portConstraint=eastwest;" vertex="1" parent="9IkHnGnMmLAS4iMcp6C8-88">
          <mxGeometry y="112" width="580" height="26" as="geometry" />
        </mxCell>
        <mxCell id="9IkHnGnMmLAS4iMcp6C8-94" value="+afficherRessources() " style="text;align=left;verticalAlign=top;spacingLeft=4;spacingRight=4;overflow=hidden;rotatable=0;points=[[0,0.5],[1,0.5]];portConstraint=eastwest;" vertex="1" parent="9IkHnGnMmLAS4iMcp6C8-88">
          <mxGeometry y="138" width="580" height="26" as="geometry" />
        </mxCell>
        <mxCell id="9IkHnGnMmLAS4iMcp6C8-98" value="GererEmprunt (revoir... semble problématique...)" style="swimlane;fontStyle=0;align=center;verticalAlign=top;childLayout=stackLayout;horizontal=1;startSize=26;horizontalStack=0;resizeParent=1;resizeLast=0;collapsible=1;marginBottom=0;rounded=0;shadow=0;strokeWidth=1;" vertex="1" parent="WIyWlLk6GJQsqaUBKTNV-1">
          <mxGeometry x="-920" y="1148" width="540" height="272" as="geometry">
            <mxRectangle x="130" y="380" width="160" height="26" as="alternateBounds" />
          </mxGeometry>
        </mxCell>
        <mxCell id="9IkHnGnMmLAS4iMcp6C8-99" value="-ressource : Map&lt;String, Map&lt;String, Map&lt;String, List&lt;Ressources&gt;&gt;&gt;&gt;" style="text;align=left;verticalAlign=top;spacingLeft=4;spacingRight=4;overflow=hidden;rotatable=0;points=[[0,0.5],[1,0.5]];portConstraint=eastwest;" vertex="1" parent="9IkHnGnMmLAS4iMcp6C8-98">
          <mxGeometry y="26" width="540" height="26" as="geometry" />
        </mxCell>
        <mxCell id="yLyFV1x4ZE79QHFPJ-aJ-14" value="-reservation : List&lt;Emprunt&gt;" style="text;align=left;verticalAlign=top;spacingLeft=4;spacingRight=4;overflow=hidden;rotatable=0;points=[[0,0.5],[1,0.5]];portConstraint=eastwest;" vertex="1" parent="9IkHnGnMmLAS4iMcp6C8-98">
          <mxGeometry y="52" width="540" height="26" as="geometry" />
        </mxCell>
        <mxCell id="9IkHnGnMmLAS4iMcp6C8-100" value="" style="line;html=1;strokeWidth=1;align=left;verticalAlign=middle;spacingTop=-1;spacingLeft=3;spacingRight=3;rotatable=0;labelPosition=right;points=[];portConstraint=eastwest;" vertex="1" parent="9IkHnGnMmLAS4iMcp6C8-98">
          <mxGeometry y="78" width="540" height="8" as="geometry" />
        </mxCell>
        <mxCell id="9IkHnGnMmLAS4iMcp6C8-101" value="+reserverRessource(titre : String, utilisateur : Utilisateur, jResa : Date, retour : Date) " style="text;align=left;verticalAlign=top;spacingLeft=4;spacingRight=4;overflow=hidden;rotatable=0;points=[[0,0.5],[1,0.5]];portConstraint=eastwest;" vertex="1" parent="9IkHnGnMmLAS4iMcp6C8-98">
          <mxGeometry y="86" width="540" height="26" as="geometry" />
        </mxCell>
        <mxCell id="9IkHnGnMmLAS4iMcp6C8-102" value="+annulerReservation(titre : String, utilisateur : Utilisateur) " style="text;align=left;verticalAlign=top;spacingLeft=4;spacingRight=4;overflow=hidden;rotatable=0;points=[[0,0.5],[1,0.5]];portConstraint=eastwest;" vertex="1" parent="9IkHnGnMmLAS4iMcp6C8-98">
          <mxGeometry y="112" width="540" height="26" as="geometry" />
        </mxCell>
        <mxCell id="9IkHnGnMmLAS4iMcp6C8-103" value="+retard() " style="text;align=left;verticalAlign=top;spacingLeft=4;spacingRight=4;overflow=hidden;rotatable=0;points=[[0,0.5],[1,0.5]];portConstraint=eastwest;" vertex="1" parent="9IkHnGnMmLAS4iMcp6C8-98">
          <mxGeometry y="138" width="540" height="26" as="geometry" />
        </mxCell>
        <mxCell id="9IkHnGnMmLAS4iMcp6C8-104" value="+afficherEmprunts()" style="text;align=left;verticalAlign=top;spacingLeft=4;spacingRight=4;overflow=hidden;rotatable=0;points=[[0,0.5],[1,0.5]];portConstraint=eastwest;" vertex="1" parent="9IkHnGnMmLAS4iMcp6C8-98">
          <mxGeometry y="164" width="540" height="26" as="geometry" />
        </mxCell>
        <mxCell id="9IkHnGnMmLAS4iMcp6C8-105" value="+notifierDisponibilite(ressource : Ressources)" style="text;align=left;verticalAlign=top;spacingLeft=4;spacingRight=4;overflow=hidden;rotatable=0;points=[[0,0.5],[1,0.5]];portConstraint=eastwest;" vertex="1" parent="9IkHnGnMmLAS4iMcp6C8-98">
          <mxGeometry y="190" width="540" height="26" as="geometry" />
        </mxCell>
        <mxCell id="9IkHnGnMmLAS4iMcp6C8-123" value="Ressource" style="swimlane;fontStyle=0;align=center;verticalAlign=top;childLayout=stackLayout;horizontal=1;startSize=26;horizontalStack=0;resizeParent=1;resizeLast=0;collapsible=1;marginBottom=0;rounded=0;shadow=0;strokeWidth=1;" vertex="1" parent="WIyWlLk6GJQsqaUBKTNV-1">
          <mxGeometry x="-1820" y="668" width="160" height="476" as="geometry">
            <mxRectangle x="130" y="380" width="160" height="26" as="alternateBounds" />
          </mxGeometry>
        </mxCell>
        <mxCell id="9IkHnGnMmLAS4iMcp6C8-124" value="+id : int" style="text;align=left;verticalAlign=top;spacingLeft=4;spacingRight=4;overflow=hidden;rotatable=0;points=[[0,0.5],[1,0.5]];portConstraint=eastwest;" vertex="1" parent="9IkHnGnMmLAS4iMcp6C8-123">
          <mxGeometry y="26" width="160" height="26" as="geometry" />
        </mxCell>
        <mxCell id="9IkHnGnMmLAS4iMcp6C8-141" value="+titre : String" style="text;align=left;verticalAlign=top;spacingLeft=4;spacingRight=4;overflow=hidden;rotatable=0;points=[[0,0.5],[1,0.5]];portConstraint=eastwest;" vertex="1" parent="9IkHnGnMmLAS4iMcp6C8-123">
          <mxGeometry y="52" width="160" height="26" as="geometry" />
        </mxCell>
        <mxCell id="9IkHnGnMmLAS4iMcp6C8-125" value="+autreur : String" style="text;align=left;verticalAlign=top;spacingLeft=4;spacingRight=4;overflow=hidden;rotatable=0;points=[[0,0.5],[1,0.5]];portConstraint=eastwest;" vertex="1" parent="9IkHnGnMmLAS4iMcp6C8-123">
          <mxGeometry y="78" width="160" height="26" as="geometry" />
        </mxCell>
        <mxCell id="9IkHnGnMmLAS4iMcp6C8-126" value="+type : String" style="text;align=left;verticalAlign=top;spacingLeft=4;spacingRight=4;overflow=hidden;rotatable=0;points=[[0,0.5],[1,0.5]];portConstraint=eastwest;rounded=0;shadow=0;html=0;" vertex="1" parent="9IkHnGnMmLAS4iMcp6C8-123">
          <mxGeometry y="104" width="160" height="26" as="geometry" />
        </mxCell>
        <mxCell id="9IkHnGnMmLAS4iMcp6C8-127" value="+sujet : String" style="text;align=left;verticalAlign=top;spacingLeft=4;spacingRight=4;overflow=hidden;rotatable=0;points=[[0,0.5],[1,0.5]];portConstraint=eastwest;" vertex="1" parent="9IkHnGnMmLAS4iMcp6C8-123">
          <mxGeometry y="130" width="160" height="26" as="geometry" />
        </mxCell>
        <mxCell id="9IkHnGnMmLAS4iMcp6C8-128" value="+dispo : boolean" style="text;align=left;verticalAlign=top;spacingLeft=4;spacingRight=4;overflow=hidden;rotatable=0;points=[[0,0.5],[1,0.5]];portConstraint=eastwest;" vertex="1" parent="9IkHnGnMmLAS4iMcp6C8-123">
          <mxGeometry y="156" width="160" height="26" as="geometry" />
        </mxCell>
        <mxCell id="9IkHnGnMmLAS4iMcp6C8-129" value="" style="line;html=1;strokeWidth=1;align=left;verticalAlign=middle;spacingTop=-1;spacingLeft=3;spacingRight=3;rotatable=0;labelPosition=right;points=[];portConstraint=eastwest;" vertex="1" parent="9IkHnGnMmLAS4iMcp6C8-123">
          <mxGeometry y="182" width="160" height="8" as="geometry" />
        </mxCell>
        <mxCell id="9IkHnGnMmLAS4iMcp6C8-130" value="+setSujet(sujet : String) " style="text;align=left;verticalAlign=top;spacingLeft=4;spacingRight=4;overflow=hidden;rotatable=0;points=[[0,0.5],[1,0.5]];portConstraint=eastwest;fontStyle=0" vertex="1" parent="9IkHnGnMmLAS4iMcp6C8-123">
          <mxGeometry y="190" width="160" height="26" as="geometry" />
        </mxCell>
        <mxCell id="9IkHnGnMmLAS4iMcp6C8-131" value="+setAuteur(auteur : String) " style="text;align=left;verticalAlign=top;spacingLeft=4;spacingRight=4;overflow=hidden;rotatable=0;points=[[0,0.5],[1,0.5]];portConstraint=eastwest;" vertex="1" parent="9IkHnGnMmLAS4iMcp6C8-123">
          <mxGeometry y="216" width="160" height="26" as="geometry" />
        </mxCell>
        <mxCell id="9IkHnGnMmLAS4iMcp6C8-132" value="+setType(type : String) " style="text;align=left;verticalAlign=top;spacingLeft=4;spacingRight=4;overflow=hidden;rotatable=0;points=[[0,0.5],[1,0.5]];portConstraint=eastwest;" vertex="1" parent="9IkHnGnMmLAS4iMcp6C8-123">
          <mxGeometry y="242" width="160" height="26" as="geometry" />
        </mxCell>
        <mxCell id="9IkHnGnMmLAS4iMcp6C8-133" value="+setTitre(titre : String) " style="text;align=left;verticalAlign=top;spacingLeft=4;spacingRight=4;overflow=hidden;rotatable=0;points=[[0,0.5],[1,0.5]];portConstraint=eastwest;" vertex="1" parent="9IkHnGnMmLAS4iMcp6C8-123">
          <mxGeometry y="268" width="160" height="26" as="geometry" />
        </mxCell>
        <mxCell id="9IkHnGnMmLAS4iMcp6C8-134" value="+setDispo(dispo : boolean) " style="text;align=left;verticalAlign=top;spacingLeft=4;spacingRight=4;overflow=hidden;rotatable=0;points=[[0,0.5],[1,0.5]];portConstraint=eastwest;" vertex="1" parent="9IkHnGnMmLAS4iMcp6C8-123">
          <mxGeometry y="294" width="160" height="26" as="geometry" />
        </mxCell>
        <mxCell id="9IkHnGnMmLAS4iMcp6C8-135" value="+getDispo() : boolean" style="text;align=left;verticalAlign=top;spacingLeft=4;spacingRight=4;overflow=hidden;rotatable=0;points=[[0,0.5],[1,0.5]];portConstraint=eastwest;" vertex="1" parent="9IkHnGnMmLAS4iMcp6C8-123">
          <mxGeometry y="320" width="160" height="26" as="geometry" />
        </mxCell>
        <mxCell id="9IkHnGnMmLAS4iMcp6C8-136" value="+getTitre() : String" style="text;align=left;verticalAlign=top;spacingLeft=4;spacingRight=4;overflow=hidden;rotatable=0;points=[[0,0.5],[1,0.5]];portConstraint=eastwest;" vertex="1" parent="9IkHnGnMmLAS4iMcp6C8-123">
          <mxGeometry y="346" width="160" height="26" as="geometry" />
        </mxCell>
        <mxCell id="9IkHnGnMmLAS4iMcp6C8-137" value="+getAuteur() : String" style="text;align=left;verticalAlign=top;spacingLeft=4;spacingRight=4;overflow=hidden;rotatable=0;points=[[0,0.5],[1,0.5]];portConstraint=eastwest;" vertex="1" parent="9IkHnGnMmLAS4iMcp6C8-123">
          <mxGeometry y="372" width="160" height="26" as="geometry" />
        </mxCell>
        <mxCell id="9IkHnGnMmLAS4iMcp6C8-138" value="+getType() : String" style="text;align=left;verticalAlign=top;spacingLeft=4;spacingRight=4;overflow=hidden;rotatable=0;points=[[0,0.5],[1,0.5]];portConstraint=eastwest;" vertex="1" parent="9IkHnGnMmLAS4iMcp6C8-123">
          <mxGeometry y="398" width="160" height="26" as="geometry" />
        </mxCell>
        <mxCell id="9IkHnGnMmLAS4iMcp6C8-139" value="+getSujet() : String" style="text;align=left;verticalAlign=top;spacingLeft=4;spacingRight=4;overflow=hidden;rotatable=0;points=[[0,0.5],[1,0.5]];portConstraint=eastwest;" vertex="1" parent="9IkHnGnMmLAS4iMcp6C8-123">
          <mxGeometry y="424" width="160" height="26" as="geometry" />
        </mxCell>
        <mxCell id="9IkHnGnMmLAS4iMcp6C8-140" value="+toString() : String" style="text;align=left;verticalAlign=top;spacingLeft=4;spacingRight=4;overflow=hidden;rotatable=0;points=[[0,0.5],[1,0.5]];portConstraint=eastwest;rounded=0;shadow=0;html=0;" vertex="1" parent="9IkHnGnMmLAS4iMcp6C8-123">
          <mxGeometry y="450" width="160" height="26" as="geometry" />
        </mxCell>
        <mxCell id="9IkHnGnMmLAS4iMcp6C8-202" value="" style="endArrow=open;shadow=0;strokeWidth=1;rounded=0;endFill=1;edgeStyle=orthogonalEdgeStyle;elbow=vertical;entryX=0.531;entryY=1;entryDx=0;entryDy=0;entryPerimeter=0;exitX=0;exitY=0.5;exitDx=0;exitDy=0;" edge="1" parent="WIyWlLk6GJQsqaUBKTNV-1" source="9IkHnGnMmLAS4iMcp6C8-33" target="9IkHnGnMmLAS4iMcp6C8-72">
          <mxGeometry x="0.5" y="41" relative="1" as="geometry">
            <mxPoint x="-210" y="1590" as="sourcePoint" />
            <mxPoint x="-82" y="1590" as="targetPoint" />
            <mxPoint x="-40" y="32" as="offset" />
          </mxGeometry>
        </mxCell>
        <mxCell id="9IkHnGnMmLAS4iMcp6C8-203" value="1" style="resizable=0;align=left;verticalAlign=bottom;labelBackgroundColor=none;fontSize=12;" connectable="0" vertex="1" parent="9IkHnGnMmLAS4iMcp6C8-202">
          <mxGeometry x="-1" relative="1" as="geometry">
            <mxPoint x="-50" y="27" as="offset" />
          </mxGeometry>
        </mxCell>
        <mxCell id="9IkHnGnMmLAS4iMcp6C8-204" value="0..*" style="resizable=0;align=right;verticalAlign=bottom;labelBackgroundColor=none;fontSize=12;" connectable="0" vertex="1" parent="9IkHnGnMmLAS4iMcp6C8-202">
          <mxGeometry x="1" relative="1" as="geometry">
            <mxPoint x="-7" y="28" as="offset" />
          </mxGeometry>
        </mxCell>
        <mxCell id="9IkHnGnMmLAS4iMcp6C8-205" value="fait des ..." style="text;html=1;resizable=0;points=[];;align=center;verticalAlign=middle;labelBackgroundColor=none;rounded=0;shadow=0;strokeWidth=1;fontSize=12;" connectable="0" vertex="1" parent="9IkHnGnMmLAS4iMcp6C8-202">
          <mxGeometry x="0.5" y="49" relative="1" as="geometry">
            <mxPoint x="14" y="2" as="offset" />
          </mxGeometry>
        </mxCell>
        <mxCell id="9IkHnGnMmLAS4iMcp6C8-206" value="" style="endArrow=open;shadow=0;strokeWidth=1;rounded=0;endFill=1;elbow=vertical;entryX=0.5;entryY=1;entryDx=0;entryDy=0;exitX=1;exitY=0.5;exitDx=0;exitDy=0;edgeStyle=orthogonalEdgeStyle;" edge="1" parent="WIyWlLk6GJQsqaUBKTNV-1" source="9IkHnGnMmLAS4iMcp6C8-32" target="9IkHnGnMmLAS4iMcp6C8-18">
          <mxGeometry x="0.5" y="41" relative="1" as="geometry">
            <mxPoint y="1573" as="sourcePoint" />
            <mxPoint x="-125" y="1472" as="targetPoint" />
            <mxPoint x="-40" y="32" as="offset" />
          </mxGeometry>
        </mxCell>
        <mxCell id="9IkHnGnMmLAS4iMcp6C8-207" value="1" style="resizable=0;align=left;verticalAlign=bottom;labelBackgroundColor=none;fontSize=12;" connectable="0" vertex="1" parent="9IkHnGnMmLAS4iMcp6C8-206">
          <mxGeometry x="-1" relative="1" as="geometry">
            <mxPoint x="20" y="27" as="offset" />
          </mxGeometry>
        </mxCell>
        <mxCell id="9IkHnGnMmLAS4iMcp6C8-208" value="0..*" style="resizable=0;align=right;verticalAlign=bottom;labelBackgroundColor=none;fontSize=12;" connectable="0" vertex="1" parent="9IkHnGnMmLAS4iMcp6C8-206">
          <mxGeometry x="1" relative="1" as="geometry">
            <mxPoint x="-7" y="28" as="offset" />
          </mxGeometry>
        </mxCell>
        <mxCell id="9IkHnGnMmLAS4iMcp6C8-209" value="demande des..." style="text;html=1;resizable=0;points=[];;align=center;verticalAlign=middle;labelBackgroundColor=none;rounded=0;shadow=0;strokeWidth=1;fontSize=12;" connectable="0" vertex="1" parent="9IkHnGnMmLAS4iMcp6C8-206">
          <mxGeometry x="0.5" y="49" relative="1" as="geometry">
            <mxPoint x="-11" y="73" as="offset" />
          </mxGeometry>
        </mxCell>
        <mxCell id="9IkHnGnMmLAS4iMcp6C8-210" value="" style="endArrow=open;shadow=0;strokeWidth=1;rounded=0;endFill=1;edgeStyle=orthogonalEdgeStyle;elbow=vertical;entryX=0;entryY=0.5;entryDx=0;entryDy=0;exitX=0.5;exitY=0;exitDx=0;exitDy=0;" edge="1" parent="WIyWlLk6GJQsqaUBKTNV-1" source="9IkHnGnMmLAS4iMcp6C8-24" target="9IkHnGnMmLAS4iMcp6C8-55">
          <mxGeometry x="0.5" y="41" relative="1" as="geometry">
            <mxPoint x="-65" y="1016.25" as="sourcePoint" />
            <mxPoint x="-190" y="915.25" as="targetPoint" />
            <mxPoint x="-40" y="32" as="offset" />
          </mxGeometry>
        </mxCell>
        <mxCell id="9IkHnGnMmLAS4iMcp6C8-211" value="1" style="resizable=0;align=left;verticalAlign=bottom;labelBackgroundColor=none;fontSize=12;" connectable="0" vertex="1" parent="9IkHnGnMmLAS4iMcp6C8-210">
          <mxGeometry x="-1" relative="1" as="geometry">
            <mxPoint x="20" y="-12" as="offset" />
          </mxGeometry>
        </mxCell>
        <mxCell id="9IkHnGnMmLAS4iMcp6C8-212" value="1" style="resizable=0;align=right;verticalAlign=bottom;labelBackgroundColor=none;fontSize=12;" connectable="0" vertex="1" parent="9IkHnGnMmLAS4iMcp6C8-210">
          <mxGeometry x="1" relative="1" as="geometry">
            <mxPoint x="-7" y="28" as="offset" />
          </mxGeometry>
        </mxCell>
        <mxCell id="9IkHnGnMmLAS4iMcp6C8-213" value="emprunte une..." style="text;html=1;resizable=0;points=[];;align=center;verticalAlign=middle;labelBackgroundColor=none;rounded=0;shadow=0;strokeWidth=1;fontSize=12;" connectable="0" vertex="1" parent="9IkHnGnMmLAS4iMcp6C8-210">
          <mxGeometry x="0.5" y="49" relative="1" as="geometry">
            <mxPoint x="-30" y="68" as="offset" />
          </mxGeometry>
        </mxCell>
        <mxCell id="9IkHnGnMmLAS4iMcp6C8-214" value="" style="endArrow=open;shadow=0;strokeWidth=1;rounded=0;endFill=1;edgeStyle=orthogonalEdgeStyle;elbow=vertical;entryX=1.013;entryY=0;entryDx=0;entryDy=0;exitX=0.5;exitY=0;exitDx=0;exitDy=0;entryPerimeter=0;" edge="1" parent="WIyWlLk6GJQsqaUBKTNV-1" source="9IkHnGnMmLAS4iMcp6C8-18" target="9IkHnGnMmLAS4iMcp6C8-55">
          <mxGeometry x="0.5" y="41" relative="1" as="geometry">
            <mxPoint x="-130" y="1152" as="sourcePoint" />
            <mxPoint x="50" y="931" as="targetPoint" />
            <mxPoint x="-40" y="32" as="offset" />
            <Array as="points">
              <mxPoint x="400" y="908" />
            </Array>
          </mxGeometry>
        </mxCell>
        <mxCell id="9IkHnGnMmLAS4iMcp6C8-215" value="1" style="resizable=0;align=left;verticalAlign=bottom;labelBackgroundColor=none;fontSize=12;" connectable="0" vertex="1" parent="9IkHnGnMmLAS4iMcp6C8-214">
          <mxGeometry x="-1" relative="1" as="geometry">
            <mxPoint x="20" y="-12" as="offset" />
          </mxGeometry>
        </mxCell>
        <mxCell id="9IkHnGnMmLAS4iMcp6C8-216" value="1" style="resizable=0;align=right;verticalAlign=bottom;labelBackgroundColor=none;fontSize=12;" connectable="0" vertex="1" parent="9IkHnGnMmLAS4iMcp6C8-214">
          <mxGeometry x="1" relative="1" as="geometry">
            <mxPoint x="38" y="-8" as="offset" />
          </mxGeometry>
        </mxCell>
        <mxCell id="9IkHnGnMmLAS4iMcp6C8-217" value="réserve une..." style="text;html=1;resizable=0;points=[];;align=center;verticalAlign=middle;labelBackgroundColor=none;rounded=0;shadow=0;strokeWidth=1;fontSize=12;" connectable="0" vertex="1" parent="9IkHnGnMmLAS4iMcp6C8-214">
          <mxGeometry x="0.5" y="49" relative="1" as="geometry">
            <mxPoint x="6" y="-27" as="offset" />
          </mxGeometry>
        </mxCell>
        <mxCell id="yLyFV1x4ZE79QHFPJ-aJ-0" value="" style="endArrow=open;shadow=0;strokeWidth=1;rounded=0;endFill=1;elbow=vertical;entryX=1;entryY=0.5;entryDx=0;entryDy=0;exitX=0;exitY=0.5;exitDx=0;exitDy=0;edgeStyle=orthogonalEdgeStyle;startArrow=diamondThin;startFill=0;startSize=20;" edge="1" parent="WIyWlLk6GJQsqaUBKTNV-1" source="9IkHnGnMmLAS4iMcp6C8-83" target="9IkHnGnMmLAS4iMcp6C8-34">
          <mxGeometry x="0.5" y="41" relative="1" as="geometry">
            <mxPoint x="160" y="1547" as="sourcePoint" />
            <mxPoint x="410" y="1330" as="targetPoint" />
            <mxPoint x="-40" y="32" as="offset" />
          </mxGeometry>
        </mxCell>
        <mxCell id="yLyFV1x4ZE79QHFPJ-aJ-2" value="0..*" style="resizable=0;align=right;verticalAlign=bottom;labelBackgroundColor=none;fontSize=12;" connectable="0" vertex="1" parent="yLyFV1x4ZE79QHFPJ-aJ-0">
          <mxGeometry x="1" relative="1" as="geometry">
            <mxPoint x="30" y="28" as="offset" />
          </mxGeometry>
        </mxCell>
        <mxCell id="yLyFV1x4ZE79QHFPJ-aJ-3" value="Gérer les ..." style="text;html=1;resizable=0;points=[];;align=center;verticalAlign=middle;labelBackgroundColor=none;rounded=0;shadow=0;strokeWidth=1;fontSize=12;" connectable="0" vertex="1" parent="yLyFV1x4ZE79QHFPJ-aJ-0">
          <mxGeometry x="0.5" y="49" relative="1" as="geometry">
            <mxPoint x="87" y="-24" as="offset" />
          </mxGeometry>
        </mxCell>
        <mxCell id="yLyFV1x4ZE79QHFPJ-aJ-4" value="" style="endArrow=open;shadow=0;strokeWidth=1;rounded=0;endFill=1;elbow=vertical;exitX=1;exitY=0.5;exitDx=0;exitDy=0;edgeStyle=orthogonalEdgeStyle;startArrow=diamondThin;startFill=0;startSize=20;entryX=0;entryY=0.5;entryDx=0;entryDy=0;" edge="1" parent="WIyWlLk6GJQsqaUBKTNV-1" source="9IkHnGnMmLAS4iMcp6C8-92" target="9IkHnGnMmLAS4iMcp6C8-58">
          <mxGeometry x="0.5" y="41" relative="1" as="geometry">
            <mxPoint x="20" y="550" as="sourcePoint" />
            <mxPoint x="-130" y="860" as="targetPoint" />
            <mxPoint x="-40" y="32" as="offset" />
          </mxGeometry>
        </mxCell>
        <mxCell id="yLyFV1x4ZE79QHFPJ-aJ-5" value="0..*" style="resizable=0;align=right;verticalAlign=bottom;labelBackgroundColor=none;fontSize=12;" connectable="0" vertex="1" parent="yLyFV1x4ZE79QHFPJ-aJ-4">
          <mxGeometry x="1" relative="1" as="geometry">
            <mxPoint x="-20" y="31" as="offset" />
          </mxGeometry>
        </mxCell>
        <mxCell id="yLyFV1x4ZE79QHFPJ-aJ-6" value="Gérer les ..." style="text;html=1;resizable=0;points=[];;align=center;verticalAlign=middle;labelBackgroundColor=none;rounded=0;shadow=0;strokeWidth=1;fontSize=12;" connectable="0" vertex="1" parent="yLyFV1x4ZE79QHFPJ-aJ-4">
          <mxGeometry x="0.5" y="49" relative="1" as="geometry">
            <mxPoint x="-81" y="30" as="offset" />
          </mxGeometry>
        </mxCell>
        <mxCell id="yLyFV1x4ZE79QHFPJ-aJ-7" value="" style="endArrow=open;shadow=0;strokeWidth=1;rounded=0;endFill=1;elbow=vertical;exitX=1;exitY=0.5;exitDx=0;exitDy=0;edgeStyle=orthogonalEdgeStyle;startArrow=diamondThin;startFill=0;startSize=20;entryX=0;entryY=0.5;entryDx=0;entryDy=0;" edge="1" parent="WIyWlLk6GJQsqaUBKTNV-1" source="9IkHnGnMmLAS4iMcp6C8-103" target="9IkHnGnMmLAS4iMcp6C8-26">
          <mxGeometry x="0.5" y="41" relative="1" as="geometry">
            <mxPoint x="-260" y="819" as="sourcePoint" />
            <mxPoint x="50" y="819" as="targetPoint" />
            <mxPoint x="-40" y="32" as="offset" />
          </mxGeometry>
        </mxCell>
        <mxCell id="yLyFV1x4ZE79QHFPJ-aJ-8" value="0..*" style="resizable=0;align=right;verticalAlign=bottom;labelBackgroundColor=none;fontSize=12;" connectable="0" vertex="1" parent="yLyFV1x4ZE79QHFPJ-aJ-7">
          <mxGeometry x="1" relative="1" as="geometry">
            <mxPoint x="-10" y="31" as="offset" />
          </mxGeometry>
        </mxCell>
        <mxCell id="yLyFV1x4ZE79QHFPJ-aJ-9" value="Gérer les ..." style="text;html=1;resizable=0;points=[];;align=center;verticalAlign=middle;labelBackgroundColor=none;rounded=0;shadow=0;strokeWidth=1;fontSize=12;" connectable="0" vertex="1" parent="yLyFV1x4ZE79QHFPJ-aJ-7">
          <mxGeometry x="0.5" y="49" relative="1" as="geometry">
            <mxPoint x="-28" y="14" as="offset" />
          </mxGeometry>
        </mxCell>
        <mxCell id="yLyFV1x4ZE79QHFPJ-aJ-10" value="&lt;div&gt;REVOIR!&lt;/div&gt;&lt;div&gt;&lt;br&gt;&lt;/div&gt;&lt;div&gt;&lt;br&gt;&lt;/div&gt;&lt;div&gt;Le diagramme de classe se base sur ce qui a été écrit dans le code, mais il y a certaine modification en ce moment:&lt;/div&gt;&lt;div&gt;Inclusion de la classe Réservation&lt;/div&gt;&lt;div&gt;&lt;br&gt;&lt;/div&gt;&lt;div&gt;Modification des attributs pour être privé (-nom:) plutôt que public (+nom:). En générale c&#39;est mieux, surtout qu&#39;on utilise des getters/setters&lt;/div&gt;&lt;div&gt;&lt;br&gt;&lt;/div&gt;&lt;div&gt;Quelques notes sont ajouté dans le diagramme, opints sur lesquels on peut discuter.&lt;br&gt;&lt;/div&gt;" style="text;html=1;align=center;verticalAlign=middle;resizable=0;points=[];autosize=1;strokeColor=none;fillColor=none;fontSize=20;" vertex="1" parent="WIyWlLk6GJQsqaUBKTNV-1">
          <mxGeometry x="-1120" y="305" width="1250" height="230" as="geometry" />
        </mxCell>
        <mxCell id="yLyFV1x4ZE79QHFPJ-aJ-15" value="GestionRessources" style="swimlane;fontStyle=0;align=center;verticalAlign=top;childLayout=stackLayout;horizontal=1;startSize=26;horizontalStack=0;resizeParent=1;resizeLast=0;collapsible=1;marginBottom=0;rounded=0;shadow=0;strokeWidth=1;" vertex="1" parent="WIyWlLk6GJQsqaUBKTNV-1">
          <mxGeometry x="-1800" y="1870" width="650" height="424" as="geometry">
            <mxRectangle x="130" y="380" width="160" height="26" as="alternateBounds" />
          </mxGeometry>
        </mxCell>
        <mxCell id="yLyFV1x4ZE79QHFPJ-aJ-16" value="-ressource : Map&lt;String, Map&lt;String, Map&lt;String, List&lt;Ressources&gt;&gt;&gt;&gt;" style="text;align=left;verticalAlign=top;spacingLeft=4;spacingRight=4;overflow=hidden;rotatable=0;points=[[0,0.5],[1,0.5]];portConstraint=eastwest;" vertex="1" parent="yLyFV1x4ZE79QHFPJ-aJ-15">
          <mxGeometry y="26" width="650" height="26" as="geometry" />
        </mxCell>
        <mxCell id="yLyFV1x4ZE79QHFPJ-aJ-17" value="-emprunts : List&lt;Emprunt&gt;" style="text;align=left;verticalAlign=top;spacingLeft=4;spacingRight=4;overflow=hidden;rotatable=0;points=[[0,0.5],[1,0.5]];portConstraint=eastwest;" vertex="1" parent="yLyFV1x4ZE79QHFPJ-aJ-15">
          <mxGeometry y="52" width="650" height="26" as="geometry" />
        </mxCell>
        <mxCell id="yLyFV1x4ZE79QHFPJ-aJ-30" value="-reservations : List&lt;Reservation&gt;" style="text;align=left;verticalAlign=top;spacingLeft=4;spacingRight=4;overflow=hidden;rotatable=0;points=[[0,0.5],[1,0.5]];portConstraint=eastwest;" vertex="1" parent="yLyFV1x4ZE79QHFPJ-aJ-15">
          <mxGeometry y="78" width="650" height="26" as="geometry" />
        </mxCell>
        <mxCell id="yLyFV1x4ZE79QHFPJ-aJ-18" value="" style="line;html=1;strokeWidth=1;align=left;verticalAlign=middle;spacingTop=-1;spacingLeft=3;spacingRight=3;rotatable=0;labelPosition=right;points=[];portConstraint=eastwest;" vertex="1" parent="yLyFV1x4ZE79QHFPJ-aJ-15">
          <mxGeometry y="104" width="650" height="8" as="geometry" />
        </mxCell>
        <mxCell id="yLyFV1x4ZE79QHFPJ-aJ-31" value="&lt;&lt;Implement&gt;&gt; emprunterRessource(titre : String, utilisateur : Utilisateur, jResa : Date, retour : Date) " style="text;align=left;verticalAlign=top;spacingLeft=4;spacingRight=4;overflow=hidden;rotatable=0;points=[[0,0.5],[1,0.5]];portConstraint=eastwest;" vertex="1" parent="yLyFV1x4ZE79QHFPJ-aJ-15">
          <mxGeometry y="112" width="650" height="26" as="geometry" />
        </mxCell>
        <mxCell id="yLyFV1x4ZE79QHFPJ-aJ-32" value="&lt;&lt;Implement&gt;&gt; retournerRessource(titre : String) " style="text;align=left;verticalAlign=top;spacingLeft=4;spacingRight=4;overflow=hidden;rotatable=0;points=[[0,0.5],[1,0.5]];portConstraint=eastwest;" vertex="1" parent="yLyFV1x4ZE79QHFPJ-aJ-15">
          <mxGeometry y="138" width="650" height="26" as="geometry" />
        </mxCell>
        <mxCell id="yLyFV1x4ZE79QHFPJ-aJ-19" value="&lt;&lt;Implement&gt;&gt; reserverRessource(titre : String, utilisateur : Utilisateur, dateReser : Date, retour : Date) " style="text;align=left;verticalAlign=top;spacingLeft=4;spacingRight=4;overflow=hidden;rotatable=0;points=[[0,0.5],[1,0.5]];portConstraint=eastwest;" vertex="1" parent="yLyFV1x4ZE79QHFPJ-aJ-15">
          <mxGeometry y="164" width="650" height="26" as="geometry" />
        </mxCell>
        <mxCell id="yLyFV1x4ZE79QHFPJ-aJ-20" value="&lt;&lt;Implement&gt;&gt; annulerReservation(titre : String, utilisateur : Utilisateur) " style="text;align=left;verticalAlign=top;spacingLeft=4;spacingRight=4;overflow=hidden;rotatable=0;points=[[0,0.5],[1,0.5]];portConstraint=eastwest;" vertex="1" parent="yLyFV1x4ZE79QHFPJ-aJ-15">
          <mxGeometry y="190" width="650" height="26" as="geometry" />
        </mxCell>
        <mxCell id="yLyFV1x4ZE79QHFPJ-aJ-21" value="&lt;&lt;Implement&gt;&gt; retard() " style="text;align=left;verticalAlign=top;spacingLeft=4;spacingRight=4;overflow=hidden;rotatable=0;points=[[0,0.5],[1,0.5]];portConstraint=eastwest;" vertex="1" parent="yLyFV1x4ZE79QHFPJ-aJ-15">
          <mxGeometry y="216" width="650" height="26" as="geometry" />
        </mxCell>
        <mxCell id="yLyFV1x4ZE79QHFPJ-aJ-23" value="&lt;&lt;Implement&gt;&gt; notifierDisponibilite(ressource : Ressources) (idée serait de voir si cette ressource a réservation quand elle est retourné)" style="text;align=left;verticalAlign=top;spacingLeft=4;spacingRight=4;overflow=hidden;rotatable=0;points=[[0,0.5],[1,0.5]];portConstraint=eastwest;" vertex="1" parent="yLyFV1x4ZE79QHFPJ-aJ-15">
          <mxGeometry y="242" width="650" height="26" as="geometry" />
        </mxCell>
        <mxCell id="yLyFV1x4ZE79QHFPJ-aJ-26" value="&lt;&lt;Implement&gt;&gt; ajoutRessource(type : String, titre : String, auteur : String, sujet : String, dispo : boolean)" style="text;align=left;verticalAlign=top;spacingLeft=4;spacingRight=4;overflow=hidden;rotatable=0;points=[[0,0.5],[1,0.5]];portConstraint=eastwest;" vertex="1" parent="yLyFV1x4ZE79QHFPJ-aJ-15">
          <mxGeometry y="268" width="650" height="26" as="geometry" />
        </mxCell>
        <mxCell id="yLyFV1x4ZE79QHFPJ-aJ-27" value="&lt;&lt;Implement&gt;&gt; suppRes(titre : String) " style="text;align=left;verticalAlign=top;spacingLeft=4;spacingRight=4;overflow=hidden;rotatable=0;points=[[0,0.5],[1,0.5]];portConstraint=eastwest;" vertex="1" parent="yLyFV1x4ZE79QHFPJ-aJ-15">
          <mxGeometry y="294" width="650" height="26" as="geometry" />
        </mxCell>
        <mxCell id="yLyFV1x4ZE79QHFPJ-aJ-28" value="&lt;&lt;Implement&gt;&gt; modifRess(titre : String, ntype : String, nsujet : String, nauteur : String, ntitre : String, dispo : boolean) " style="text;align=left;verticalAlign=top;spacingLeft=4;spacingRight=4;overflow=hidden;rotatable=0;points=[[0,0.5],[1,0.5]];portConstraint=eastwest;" vertex="1" parent="yLyFV1x4ZE79QHFPJ-aJ-15">
          <mxGeometry y="320" width="650" height="26" as="geometry" />
        </mxCell>
        <mxCell id="yLyFV1x4ZE79QHFPJ-aJ-29" value="&lt;&lt;Implement&gt;&gt; afficherRessources() " style="text;align=left;verticalAlign=top;spacingLeft=4;spacingRight=4;overflow=hidden;rotatable=0;points=[[0,0.5],[1,0.5]];portConstraint=eastwest;" vertex="1" parent="yLyFV1x4ZE79QHFPJ-aJ-15">
          <mxGeometry y="346" width="650" height="26" as="geometry" />
        </mxCell>
        <mxCell id="yLyFV1x4ZE79QHFPJ-aJ-22" value="&lt;&lt;Implement&gt;&gt; afficherEmprunts()" style="text;align=left;verticalAlign=top;spacingLeft=4;spacingRight=4;overflow=hidden;rotatable=0;points=[[0,0.5],[1,0.5]];portConstraint=eastwest;" vertex="1" parent="yLyFV1x4ZE79QHFPJ-aJ-15">
          <mxGeometry y="372" width="650" height="26" as="geometry" />
        </mxCell>
        <mxCell id="yLyFV1x4ZE79QHFPJ-aJ-35" value="&lt;&lt;Implement&gt;&gt; afficherReservations()" style="text;align=left;verticalAlign=top;spacingLeft=4;spacingRight=4;overflow=hidden;rotatable=0;points=[[0,0.5],[1,0.5]];portConstraint=eastwest;" vertex="1" parent="yLyFV1x4ZE79QHFPJ-aJ-15">
          <mxGeometry y="398" width="650" height="26" as="geometry" />
        </mxCell>
        <mxCell id="yLyFV1x4ZE79QHFPJ-aJ-36" value="&lt;div&gt;-Je crois qu&#39;il faut faireune list d&#39;emprunt ET une liste de réservation plutôt que de mélangé les deux&lt;/div&gt;&lt;div&gt;(attribut confirme serait alors dans Reservation)&lt;br&gt;&lt;/div&gt;&lt;div&gt;&lt;br&gt;&lt;/div&gt;&lt;div&gt;-Il faudrait pas une méthode qui dit :&lt;br&gt;&lt;/div&gt;&lt;div&gt;+retournerRessource(titre: String)&lt;/div&gt;&lt;div&gt;dans GererEmprunt?&lt;br&gt;&lt;/div&gt;&lt;div&gt;&lt;br&gt;&lt;/div&gt;&lt;div&gt;-La fonciton retard() ne semble pas utile en moment: Elle itère sur la liste au complet des réservation, ce qui semble être de trop.&lt;/div&gt;&lt;div&gt;Je pense qu&#39;on pourrait faire l&#39;ajout de pénalité simplement quand un élément est retourné. &lt;br&gt;&lt;/div&gt;&lt;div&gt;Donc emprunt aurait attribut : jEmprunt, jRetour, jLimiteRetour (date d&#39;emprunt, de de retour, date limite avant le retard)&lt;br&gt;&lt;/div&gt;&lt;div&gt;&lt;br&gt;&lt;/div&gt;&lt;div&gt;&lt;br&gt;&lt;/div&gt;" style="text;html=1;align=center;verticalAlign=middle;resizable=0;points=[];autosize=1;strokeColor=none;fillColor=none;" vertex="1" parent="WIyWlLk6GJQsqaUBKTNV-1">
          <mxGeometry x="-1030" y="1459" width="710" height="190" as="geometry" />
        </mxCell>
        <mxCell id="yLyFV1x4ZE79QHFPJ-aJ-40" value="&lt;div&gt;GererRess et Gerer Emprunt utilise tout les deux:&lt;/div&gt;&lt;div&gt;-ressources : Map&amp;lt;String, Map&amp;lt;String, Map&amp;lt;String, List&amp;lt;Ressources&amp;gt;&amp;gt;&amp;gt;&amp;gt;&lt;/div&gt;&lt;div&gt;&lt;br&gt;&lt;/div&gt;&lt;div&gt;Est-il possible de les mélangé plutôt que d&#39;avoir 2 fois cette liste? Ça me semble très problématique&amp;nbsp; dans le cas ou une liste est modifié alors que l&#39;autre ne l&#39;est pas.&lt;/div&gt;&lt;div&gt;&lt;br&gt;&lt;/div&gt;&lt;div&gt;Je crois qu&#39;il est préférable d&#39;avoir qu&#39;une seule liste de ressources. J&#39;ai fait de quoi à droite (classe GestionRessources que je crois serait une meilleur implémentation)&lt;/div&gt;&lt;div&gt;&lt;br&gt;&lt;/div&gt;&lt;div&gt;De plus, je suis pas certain si c&#39;est la meilleur des chose d&#39;avoir le Map&amp;lt;Map&amp;lt;Map&amp;lt;List&amp;gt;&amp;gt;&amp;gt;&amp;gt; pour les ressources&lt;/div&gt;&lt;div&gt;On pourrait pas donner un ID unique pour chaque ressource?&lt;br&gt;&lt;/div&gt;" style="text;html=1;align=center;verticalAlign=middle;resizable=0;points=[];autosize=1;strokeColor=none;fillColor=none;" vertex="1" parent="WIyWlLk6GJQsqaUBKTNV-1">
          <mxGeometry x="-1125" y="980" width="910" height="140" as="geometry" />
        </mxCell>
        <mxCell id="yLyFV1x4ZE79QHFPJ-aJ-70" value="" style="endArrow=block;html=1;rounded=0;entryX=1.001;entryY=0.093;entryDx=0;entryDy=0;entryPerimeter=0;exitX=0;exitY=0.5;exitDx=0;exitDy=0;endFill=0;dashed=1;dashPattern=1 2;endSize=18;startSize=18;strokeWidth=2;" edge="1" parent="WIyWlLk6GJQsqaUBKTNV-1" source="yLyFV1x4ZE79QHFPJ-aJ-17" target="yLyFV1x4ZE79QHFPJ-aJ-62">
          <mxGeometry width="50" height="50" relative="1" as="geometry">
            <mxPoint x="-1830" y="2200" as="sourcePoint" />
            <mxPoint x="-1780" y="2150" as="targetPoint" />
          </mxGeometry>
        </mxCell>
        <mxCell id="yLyFV1x4ZE79QHFPJ-aJ-96" value="Un utilisateur devrait avoir plus d&#39;éléments non?&lt;br&gt;Nom, prénom, courriel (courriel de l&#39;université, permet de contacter utilisateur qui a fait réservation)" style="text;html=1;align=center;verticalAlign=middle;resizable=0;points=[];autosize=1;strokeColor=none;fillColor=none;" vertex="1" parent="WIyWlLk6GJQsqaUBKTNV-1">
          <mxGeometry x="-180" y="1850" width="550" height="40" as="geometry" />
        </mxCell>
      </root>
    </mxGraphModel>
  </diagram>
</mxfile>
